<?xml version="1.0" encoding="UTF-8"?>
<svg width="24px" height="24px" viewBox="0 0 24 24" version="1.1" xmlns="http://www.w3.org/2000/svg" xmlns:xlink="http://www.w3.org/1999/xlink">
    <title>02.Icons/Add</title>
    <defs>
        <path d="M12,3 C16.9705627,3 21,7.02943725 21,12 C21,16.9705627 16.9705627,21 12,21 C7.02943725,21 3,16.9705627 3,12 C3,7.02943725 7.02943725,3 12,3 Z M12,4.63636364 C7.93317593,4.63636364 4.63636364,7.93317593 4.63636364,12 C4.63636364,16.0668241 7.93317593,19.3636364 12,19.3636364 C16.0668241,19.3636364 19.3636364,16.0668241 19.3636364,12 C19.3636364,7.93317593 16.0668241,4.63636364 12,4.63636364 Z M12,7.90909091 C12.4518693,7.90909091 12.8181818,8.27540339 12.8181818,8.72727273 L12.8181818,8.72727273 L12.818,11.181 L15.2727273,11.1818182 C15.6898374,11.1818182 16.0340471,11.4939424 16.0845343,11.897369 L16.0909091,12 C16.0909091,12.4518693 15.7245966,12.8181818 15.2727273,12.8181818 L15.2727273,12.8181818 L12.818,12.818 L12.8181818,15.2727273 C12.8181818,15.6898374 12.5060576,16.0340471 12.102631,16.0845343 L12,16.0909091 C11.5481307,16.0909091 11.1818182,15.7245966 11.1818182,15.2727273 L11.1818182,15.2727273 L11.181,12.818 L8.72727273,12.8181818 C8.31016257,12.8181818 7.96595293,12.5060576 7.91546571,12.102631 L7.90909091,12 C7.90909091,11.5481307 8.27540339,11.1818182 8.72727273,11.1818182 L8.72727273,11.1818182 L11.181,11.181 L11.1818182,8.72727273 C11.1818182,8.31016257 11.4939424,7.96595293 11.897369,7.91546571 Z" id="path-1"></path>
    </defs>
    <g id="02.Icons/Add" stroke="none" stroke-width="1" fill="none" fill-rule="evenodd">
        <mask id="mask-2" fill="white">
            <use xlink:href="#path-1"></use>
        </mask>
        <use id="Combined-Shape" fill="#091625" xlink:href="#path-1"></use>
    </g>
</svg>