<?xml version="1.0" encoding="UTF-8"?>
<svg width="24px" height="24px" viewBox="0 0 24 24" version="1.1" xmlns="http://www.w3.org/2000/svg" xmlns:xlink="http://www.w3.org/1999/xlink">
    <title>02.Icons/Arrow Right</title>
    <defs>
        <path d="M6.8,2 C7.2418278,2 7.6,2.3581722 7.6,2.8 L7.6,2.8 L7.6,13.2 C7.6,14.5254834 8.6745166,15.6 10,15.6 L10,15.6 L15.269,15.6 L12.6343146,12.9656854 C12.3502969,12.6816678 12.3244771,12.2372265 12.5568552,11.9240409 L12.6343146,11.8343146 C12.946734,11.5218951 13.453266,11.5218951 13.7656854,11.8343146 L13.7656854,11.8343146 L17.7656854,15.8343146 C17.76821,15.8368392 17.7707142,15.8393765 17.773198,15.8419262 C17.7944158,15.8637105 17.814475,15.8867924 17.8331796,15.9109752 C17.8383558,15.9175719 17.8436652,15.924661 17.8488417,15.9318164 C17.9100564,16.0167851 17.9548448,16.1133845 17.9791694,16.2178421 C17.98281,16.2338278 17.9859541,16.249482 17.9886271,16.2652008 C17.9961136,16.3088603 18,16.3539763 18,16.4 L17.995926,16.3191216 C17.9976804,16.3364885 17.9988682,16.3539018 17.9994894,16.3713316 L18,16.4 C18,16.4098562 17.9998218,16.4196707 17.9994683,16.4294405 C17.9988223,16.4467679 17.9976467,16.4638455 17.995926,16.4808784 C17.9941599,16.4989049 17.9917049,16.5170733 17.988651,16.5350377 C17.9860121,16.5501773 17.9829461,16.5654936 17.9794292,16.5807269 C17.9551281,16.686004 17.9102488,16.7829482 17.8492595,16.8675008 C17.8241484,16.9023173 17.7964296,16.9349412 17.7656854,16.9656854 L17.8331796,16.8890248 C17.814475,16.9132076 17.7944158,16.9362895 17.7731157,16.9581569 L17.7656854,16.9656854 L13.7656854,20.9656854 C13.453266,21.2781049 12.946734,21.2781049 12.6343146,20.9656854 C12.3218951,20.653266 12.3218951,20.146734 12.6343146,19.8343146 L12.6343146,19.8343146 L15.267,17.2 L10,17.2 C7.85780461,17.2 6.10892112,15.5160315 6.00489531,13.3996403 L6,13.2 L6,2.8 C6,2.3581722 6.3581722,2 6.8,2 Z" id="path-1"></path>
    </defs>
    <g id="02.Icons/Arrow-Right" stroke="none" stroke-width="1" fill="none" fill-rule="evenodd">
        <mask id="mask-2" fill="white">
            <use xlink:href="#path-1"></use>
        </mask>
        <use id="Combined-Shape" fill="#091625" xlink:href="#path-1"></use>
    </g>
</svg>