<?xml version="1.0" encoding="UTF-8"?>
<svg width="24px" height="24px" viewBox="0 0 24 24" version="1.1" xmlns="http://www.w3.org/2000/svg" xmlns:xlink="http://www.w3.org/1999/xlink">
    <title>02.Icons/Close</title>
    <g id="02.Icons/Close" stroke="none" stroke-width="1" fill="none" fill-rule="evenodd">
        <path d="M12,3 C16.9705627,3 21,7.02943725 21,12 C21,16.9705627 16.9705627,21 12,21 C7.02943725,21 3,16.9705627 3,12 C3,7.02943725 7.02943725,3 12,3 Z M12,4.63636364 C7.93317593,4.63636364 4.63636364,7.93317593 4.63636364,12 C4.63636364,16.0668241 7.93317593,19.3636364 12,19.3636364 C16.0668241,19.3636364 19.3636364,16.0668241 19.3636364,12 C19.3636364,7.93317593 16.0668241,4.63636364 12,4.63636364 Z" id="Combined-Shape" fill="#091625"></path>
        <path d="M12.0909091,8 C12.5427784,8 12.9090909,8.36631248 12.9090909,8.81818182 L12.9090909,8.81818182 L12.909,11.272 L15.3636364,11.2727273 C15.7807465,11.2727273 16.1249562,11.5848515 16.1754434,11.9882781 L16.1818182,12.0909091 C16.1818182,12.5427784 15.8155057,12.9090909 15.3636364,12.9090909 L15.3636364,12.9090909 L12.909,12.909 L12.9090909,15.3636364 C12.9090909,15.7807465 12.5969667,16.1249562 12.1935401,16.1754434 L12.0909091,16.1818182 C11.6390398,16.1818182 11.2727273,15.8155057 11.2727273,15.3636364 L11.2727273,15.3636364 L11.272,12.909 L8.81818182,12.9090909 C8.40107166,12.9090909 8.05686202,12.5969667 8.0063748,12.1935401 L8,12.0909091 C8,11.6390398 8.36631248,11.2727273 8.81818182,11.2727273 L8.81818182,11.2727273 L11.272,11.272 L11.2727273,8.81818182 C11.2727273,8.40107166 11.5848515,8.05686202 11.9882781,8.0063748 Z" id="Combined-Shape" fill="#091625" transform="translate(12.090909, 12.090909) rotate(-315.000000) translate(-12.090909, -12.090909) "></path>
    </g>
</svg>