<?xml version="1.0" encoding="UTF-8"?>
<svg width="24px" height="24px" viewBox="0 0 24 24" version="1.1" xmlns="http://www.w3.org/2000/svg" xmlns:xlink="http://www.w3.org/1999/xlink">
    <title>02.Icons/Configuration</title>
    <defs>
        <path d="M12,4 C13.1045695,4 14,4.8954305 14,6 L14,6.05734113 C14.0006835,6.23005543 14.1038711,6.38586865 14.2691769,6.45675828 C14.431241,6.52828361 14.6205218,6.49396346 14.7419288,6.37526215 L14.7816667,6.33552444 C15.1568032,5.95997035 15.6658482,5.74895112 16.1966667,5.74895112 C16.7274852,5.74895112 17.2365302,5.95997035 17.6111422,6.335 C17.9866963,6.71013651 18.1977155,7.2191815 18.1977155,7.75 C18.1977155,8.2808185 17.9866963,8.78986349 17.6114045,9.16473785 L17.5765751,9.19950997 C17.4527032,9.32614487 17.4183831,9.51542571 17.4899084,9.67748977 C17.50876,9.72020431 17.5230206,9.76466258 17.5325324,9.81011646 C17.6117755,9.92693737 17.7442249,9.99942745 17.8866667,10 L18,10 C19.1045695,10 20,10.8954305 20,12 C20,13.1045695 19.1045695,14 18,14 L17.9426589,14 C17.7699446,14.0006835 17.6141314,14.1038711 17.5460932,14.262621 C17.4717164,14.431241 17.5060365,14.6205218 17.6247379,14.7419288 L17.6644756,14.7816667 C18.0400296,15.1568032 18.2510489,15.6658482 18.2510489,16.1966667 C18.2510489,16.7274852 18.0400296,17.2365302 17.665,17.6111422 C17.2898635,17.9866963 16.7808185,18.1977155 16.25,18.1977155 C15.7191815,18.1977155 15.2101365,17.9866963 14.8352621,17.6114045 L14.80049,17.5765751 C14.6738551,17.4527032 14.4845743,17.4183831 14.3159543,17.4927599 C14.1572044,17.560798 14.0540169,17.7166112 14.0533333,17.8866667 L14.0533333,18 C14.0533333,19.1045695 13.1579028,20 12.0533333,20 C10.9487638,20 10.0533333,19.1045695 10.0533333,18 C10.0493547,17.7777053 9.9368759,17.6204432 9.73082311,17.5432417 C9.56875905,17.4717164 9.37947821,17.5060365 9.25807119,17.6247379 L9.21833333,17.6644756 C8.84319682,18.0400296 8.33415183,18.2510489 7.80333333,18.2510489 C7.27251484,18.2510489 6.76346985,18.0400296 6.38885777,17.665 C6.01330368,17.2898635 5.80228446,16.7808185 5.80228446,16.25 C5.80228446,15.7191815 6.01330368,15.2101365 6.38859548,14.8352621 L6.42342494,14.80049 C6.54729679,14.6738551 6.58161694,14.4845743 6.50724012,14.3159543 C6.43920198,14.1572044 6.28338876,14.0540169 6.11333333,14.0533333 L6,14.0533333 C4.8954305,14.0533333 4,13.1579028 4,12.0533333 C4,10.9487638 4.8954305,10.0533333 6,10.0533333 C6.22229471,10.0493547 6.37955679,9.9368759 6.45675828,9.73082311 C6.52828361,9.56875905 6.49396346,9.37947821 6.37526215,9.25807119 L6.33552444,9.21833333 C5.95997035,8.84319682 5.74895112,8.33415183 5.74895112,7.80333333 C5.74895112,7.27251484 5.95997035,6.76346985 6.335,6.38885777 C6.71013651,6.01330368 7.2191815,5.80228446 7.75,5.80228446 C8.2808185,5.80228446 8.78986349,6.01330368 9.16473785,6.38859548 L9.19950997,6.42342494 C9.32614487,6.54729679 9.51542571,6.58161694 9.67748977,6.51009161 C9.72020431,6.49123998 9.76466258,6.47697941 9.81011646,6.46746764 C9.92693737,6.3882245 9.99942745,6.25577513 10,6.11333333 L10,6 C10,4.8954305 10.8954305,4 12,4 Z M12,5.33333333 C11.6318102,5.33333333 11.3333333,5.63181017 11.3333333,6 L11.3333333,6.11599221 C11.3305197,6.82013513 10.9098319,7.45537364 10.262621,7.73275988 C10.2062876,7.75690365 10.1470235,7.77310903 10.086524,7.78102806 C9.45647854,8.00189203 8.74975321,7.84863811 8.26192881,7.37140452 L8.22166667,7.33114223 C8.09662116,7.20595753 7.9269395,7.13561779 7.75,7.13561779 C7.5730605,7.13561779 7.40337884,7.20595753 7.2778089,7.33166667 C7.1526242,7.45671217 7.08228446,7.62639383 7.08228446,7.80333333 C7.08228446,7.98027283 7.1526242,8.1499545 7.27807119,8.27526215 L7.32324172,8.32049003 C7.82825771,8.83677077 7.96817833,9.60845419 7.6923574,10.2301207 C7.44195631,10.9109531 6.80081086,11.3695207 6.06,11.3866667 L6,11.3866667 C5.63181017,11.3866667 5.33333333,11.6851435 5.33333333,12.0533333 C5.33333333,12.4215232 5.63181017,12.72 6,12.72 L6.11599221,12.7200053 C6.82013513,12.7228137 7.45537364,13.1435014 7.72990839,13.7841564 C8.02151167,14.4448791 7.88159105,15.2165626 7.37140452,15.7380712 L7.33114223,15.7783333 C7.20595753,15.9033788 7.13561779,16.0730605 7.13561779,16.25 C7.13561779,16.4269395 7.20595753,16.5966212 7.33166667,16.7221911 C7.45671217,16.8473758 7.62639383,16.9177155 7.80333333,16.9177155 C7.98027283,16.9177155 8.1499545,16.8473758 8.27526215,16.7219288 L8.32049003,16.6767583 C8.83677077,16.1717423 9.60845419,16.0318217 10.2301207,16.3076426 C10.9109531,16.5580437 11.3695207,17.1991891 11.3866667,17.94 L11.3866667,18 C11.3866667,18.3681898 11.6851435,18.6666667 12.0533333,18.6666667 C12.4215232,18.6666667 12.72,18.3681898 12.72,18 L12.7200053,17.8840078 C12.7228137,17.1798649 13.1435014,16.5446264 13.7841564,16.2700916 C14.4448791,15.9784883 15.2165626,16.118409 15.7380712,16.6285955 L15.7783333,16.6688578 C15.9033788,16.7940425 16.0730605,16.8643822 16.25,16.8643822 C16.4269395,16.8643822 16.5966212,16.7940425 16.7221911,16.6683333 C16.8473758,16.5432878 16.9177155,16.3736062 16.9177155,16.1966667 C16.9177155,16.0197272 16.8473758,15.8500455 16.7219288,15.7247379 L16.6767583,15.67951 C16.1717423,15.1632292 16.0318217,14.3915458 16.3234249,13.7308231 C16.5979597,13.0901681 17.2331982,12.6694803 17.94,12.6666667 L18,12.6666667 C18.3681898,12.6666667 18.6666667,12.3681898 18.6666667,12 C18.6666667,11.6318102 18.3681898,11.3333333 18,11.3333333 L17.8840078,11.3333333 C17.1798649,11.3305197 16.5446264,10.9098319 16.2672401,10.262621 C16.2430963,10.2062876 16.226891,10.1470235 16.2189719,10.086524 C15.998108,9.45647854 16.1513619,8.74975321 16.6285955,8.26192881 L16.6688578,8.22166667 C16.7940425,8.09662116 16.8643822,7.9269395 16.8643822,7.75 C16.8643822,7.5730605 16.7940425,7.40337884 16.6683333,7.2778089 C16.5432878,7.1526242 16.3736062,7.08228446 16.1966667,7.08228446 C16.0197272,7.08228446 15.8500455,7.1526242 15.7247379,7.27807119 L15.67951,7.32324172 C15.1632292,7.82825771 14.3915458,7.96817833 13.737379,7.67942655 C13.0901681,7.40204031 12.6694803,6.7668018 12.6666667,6.06 L12.6666667,6 C12.6666667,5.63181017 12.3681898,5.33333333 12,5.33333333 Z M12,9.33333333 C13.4727593,9.33333333 14.6666667,10.5272407 14.6666667,12 C14.6666667,13.4727593 13.4727593,14.6666667 12,14.6666667 C10.5272407,14.6666667 9.33333333,13.4727593 9.33333333,12 C9.33333333,10.5272407 10.5272407,9.33333333 12,9.33333333 Z M12,13.3333333 C12.7363797,13.3333333 13.3333333,12.7363797 13.3333333,12 C13.3333333,11.2636203 12.7363797,10.6666667 12,10.6666667 C11.2636203,10.6666667 10.6666667,11.2636203 10.6666667,12 C10.6666667,12.7363797 11.2636203,13.3333333 12,13.3333333 Z" id="path-1"></path>
    </defs>
    <g id="02.Icons/Configuration" stroke="none" stroke-width="1" fill="none" fill-rule="evenodd">
        <mask id="mask-2" fill="white">
            <use xlink:href="#path-1"></use>
        </mask>
        <use id="Combined-Shape" fill="#091625" xlink:href="#path-1"></use>
    </g>
</svg>