<?xml version="1.0" encoding="UTF-8"?>
<svg width="24px" height="24px" viewBox="0 0 24 24" version="1.1" xmlns="http://www.w3.org/2000/svg" xmlns:xlink="http://www.w3.org/1999/xlink">
    <title>02.Icons/Description</title>
    <defs>
        <polygon id="path-1" points="11 8 13 8 13 16 11 16"></polygon>
    </defs>
    <g id="02.Icons/Description" stroke="none" stroke-width="1" fill="none" fill-rule="evenodd">
        <path d="M12,3 C16.9705627,3 21,7.02943725 21,12 C21,16.9705627 16.9705627,21 12,21 C7.02943725,21 3,16.9705627 3,12 C3,7.02943725 7.02943725,3 12,3 Z M12,4.63636364 C7.93317593,4.63636364 4.63636364,7.93317593 4.63636364,12 C4.63636364,16.0668241 7.93317593,19.3636364 12,19.3636364 C16.0668241,19.3636364 19.3636364,16.0668241 19.3636364,12 C19.3636364,7.93317593 16.0668241,4.63636364 12,4.63636364 Z" id="Combined-Shape" fill="#091625"></path>
        <mask id="mask-2" fill="white">
            <use xlink:href="#path-1"></use>
        </mask>
        <g id="Clip-2"></g>
        <path d="M12.0000591,12.9999557 C12.5523658,12.9999557 13,12.5522232 13,11.9999409 L13,9.00001477 C13,8.44773254 12.5523658,8 12.0000591,8 C11.4476342,8 11,8.44773254 11,9.00001477 L11,11.9999409 C11,12.5522232 11.4476342,12.9999557 12.0000591,12.9999557" id="Path" fill="#091625" mask="url(#mask-2)"></path>
        <path d="M11,14.9999852 C11,14.447703 11.4476342,13.9999705 12.0000591,13.9999705 C12.5523658,13.9999705 13,14.447703 13,14.9999852 C13,15.5521493 12.5523658,16 12.0000591,16 C11.4476342,16 11,15.5521493 11,14.9999852" id="Path" fill="#091625" mask="url(#mask-2)"></path>
    </g>
</svg>