<?xml version="1.0" encoding="UTF-8"?>
<svg width="24px" height="24px" viewBox="0 0 24 24" version="1.1" xmlns="http://www.w3.org/2000/svg" xmlns:xlink="http://www.w3.org/1999/xlink">
    <title>02.Icons/Diffuser</title>
    <g id="Symbols" stroke="none" stroke-width="1" fill="none" fill-rule="evenodd">
        <g id="02.Icons/Diffuser">
            <path d="M4.42864425,12.7724215 L4.47673574,12.7724215 C4.83790283,12.7724215 5.16107763,12.4800252 5.19738671,12.1183772 C5.36161914,10.05405 6.48960502,8.16261175 8.21705132,7.05722887 C8.54984442,6.83528665 8.63761139,6.39885638 8.40893636,6.02566643 C8.15068506,5.73038468 7.72651813,5.66041157 7.42330129,5.86239582 C5.3262719,7.21953765 3.955424,9.51662763 3.75632523,12.0056027 C3.73781001,12.2075869 3.80441672,12.407888 3.93883243,12.5550479 C4.0667558,12.6952346 4.24060653,12.7724215 4.42864425,12.7724215" id="Fill-1" fill="#091625"></path>
            <path d="M15.904019,7.0585033 C17.6293012,8.16268389 18.7575275,10.0541222 18.9220004,12.1208539 C18.9578286,12.4800973 19.2810034,12.7724936 19.6424109,12.7724936 L19.6905024,12.7724936 C19.8785401,12.7724936 20.0523909,12.6950663 20.1800738,12.5548796 C20.3144895,12.4079601 20.3810962,12.2076591 20.3628214,12.0066366 C20.1634822,9.51669977 18.7926343,7.21960979 16.6970477,5.86318933 C16.3926285,5.66072416 15.9684616,5.73069728 15.697947,6.04233013 C15.4815353,6.39892852 15.5693022,6.83511833 15.904019,7.0585033" id="Fill-3" fill="#091625"></path>
            <path d="M12.0750708,2 C14.0109937,2 15.5857495,3.57499627 15.5857495,5.51043826 C15.5857495,5.67130429 15.560261,5.85044509 15.5357344,6.02309353 C15.2765213,7.73394826 13.7890515,9.02135743 12.0750708,9.02135743 C10.2610598,9.02135743 8.71924669,7.59376157 8.56535393,5.77109413 L8.56535393,5.77109413 L8.5643921,5.51067872 C8.5643921,3.57499627 10.1393884,2 12.0750708,2 Z M12.0750708,3.46654996 C11.5176905,3.46654996 10.9968596,3.68464487 10.6085209,4.08043782 C10.2259531,4.47021935 10.0208429,4.98503874 10.0311825,5.53015577 L10.0311825,5.53015577 L10.0311825,5.70304467 C10.0953847,6.76490475 10.9932528,7.6026585 12.0750708,7.6026585 C13.0917249,7.6026585 13.9715587,6.84305342 14.1216041,5.83601764 C14.1430049,5.72733087 14.1430049,5.62056777 14.1430049,5.53472446 C14.1430049,4.39447525 13.21532,3.46654996 12.0750708,3.46654996 Z" id="Combined-Shape" fill="#091625"></path>
            <path d="M5.48663297,12.820537 C7.42231541,12.820537 8.99731169,14.3955333 8.99731169,16.3312157 C8.99731169,17.3639804 8.53659522,18.3426422 7.73298643,19.0161635 C7.12511001,19.5482959 6.32679129,19.8418944 5.48663297,19.8418944 C3.56417569,19.8418944 2,18.2668981 2,16.3312157 C2,14.8829405 2.91277647,13.5654742 4.27136104,13.0525784 C4.65537158,12.8989261 5.06511107,12.820537 5.48663297,12.820537 Z M5.48663297,14.2632817 C5.2519465,14.2632817 5.0129318,14.3070449 4.77584076,14.3926478 C3.97920524,14.6946623 3.44274468,15.4641262 3.44274468,16.30717 C3.44274468,17.4474192 4.37042951,18.375104 5.51067872,18.375104 C5.97981119,18.375104 6.45880243,18.2022151 6.8245382,17.9011624 C7.28862107,17.5212396 7.55456701,16.9489509 7.55456701,16.3312157 C7.55456701,15.1909665 6.62688218,14.2632817 5.48663297,14.2632817 Z" id="Combined-Shape" fill="#091625"></path>
            <polygon id="Clip-10" points="8.00769649 18.7068132 15.9744286 18.7068132 15.9744286 20.9364567 8.00769649 20.9364567"></polygon>
            <path d="M15.8602317,19.1384362 C15.6786863,18.8260819 15.2634163,18.6938303 14.9325469,18.8443567 C13.0658757,19.7410225 10.863526,19.7174577 9.03941578,18.7808759 C8.6799319,18.6055825 8.25865046,18.7486546 8.05137614,19.1338675 C7.92585735,19.5053742 8.07902874,19.9071786 8.40605087,20.0680446 C9.54726191,20.6463448 10.8055757,20.9365769 12.06413,20.9365769 C13.2628104,20.9363365 14.4619717,20.6735165 15.5596599,20.1466742 C15.7438503,20.0608309 15.8835561,19.9026099 15.9429491,19.7126485 C15.9999375,19.5315841 15.9790177,19.3425845 15.8845179,19.1797948 L15.8602317,19.1384362 Z" id="Fill-9" fill="#091625"></path>
            <path d="M18.4893213,12.8204649 C20.4250037,12.8204649 22,14.3954611 22,16.3311436 C22,17.3639083 21.5390431,18.3425701 20.7356747,19.0160914 C20.1277983,19.5482237 19.3294796,19.8420627 18.4893213,19.8420627 C16.566864,19.8420627 15.0026883,18.2670665 15.0026883,16.3311436 C15.0026883,14.8831088 15.9154648,13.565402 17.2740494,13.0525063 C17.6580599,12.8990944 18.0675589,12.8204649 18.4893213,12.8204649 Z M18.4893213,14.2632095 C18.2546348,14.2632095 18.0156201,14.3069728 17.7785291,14.3925756 C16.9816531,14.6945902 16.445433,15.4642945 16.445433,16.3070978 C16.445433,17.4475875 17.3731178,18.3750319 18.513367,18.3750319 C18.9824995,18.3750319 19.4614907,18.202143 19.8272265,17.9010902 C20.2913094,17.5211675 20.5572553,16.9488787 20.5572553,16.3311436 C20.5572553,15.1908944 19.6295705,14.2632095 18.4893213,14.2632095 Z" id="Combined-Shape" fill="#091625"></path>
        </g>
    </g>
</svg>