<?xml version="1.0" encoding="UTF-8"?>
<svg width="48px" height="48px" viewBox="0 0 48 48" version="1.1" xmlns="http://www.w3.org/2000/svg" xmlns:xlink="http://www.w3.org/1999/xlink">
    <title>02.Icons/Symbol/Done</title>
    <g id="02.Icons/Symbol/Done" stroke="none" stroke-width="1" fill="none" fill-rule="evenodd">
        <g id="Group" transform="translate(12.000000, 17.000000)" fill="#091625">
            <path d="M12,3 C14.2558065,3 16.3867742,3.26571429 18.0009677,3.74857143 C19.8161437,4.2912987 20.8139236,5.05010035 20.9741071,6.0050966 L20.9912903,6.14285714 L21,6.14285714 L21,17.7142857 C21,18.8028571 19.9896774,19.6571429 18.0009677,20.2514286 C16.3867742,20.7342857 14.2558065,21 12,21 C9.74419355,21 7.61322581,20.7342857 5.99903226,20.2514286 C4.09678822,19.6829814 3.08970364,18.8766514 3.00572699,17.8549425 L3,17.7142857 L3,6.14285714 C3.09290323,5.12285714 4.09741935,4.31714286 5.99903226,3.74857143 C7.61322581,3.26571429 9.74419355,3 12,3 Z M19.2609677,14.0657143 C18.8951613,14.2371429 18.4770968,14.3942857 18.0009677,14.5371429 C16.3867742,15.02 14.2558065,15.2857143 12,15.2857143 C9.74419355,15.2857143 7.61322581,15.02 5.99903226,14.5371429 C5.52290323,14.3942857 5.10483871,14.2371429 4.74193548,14.0657143 L4.74193548,14.0657143 L4.74193548,17.7142857 C4.89580645,18.1457143 7.28516129,19.2857143 12,19.2857143 C16.7148387,19.2857143 19.1041935,18.1457143 19.2609677,17.6914286 L19.2609677,17.6914286 Z M19.2580645,8.35142857 C18.8951613,8.52285714 18.4770968,8.68 18.0009677,8.82285714 C16.3867742,9.30571429 14.2558065,9.57142857 12,9.57142857 C9.74419355,9.57142857 7.61322581,9.30571429 5.99903226,8.82285714 C5.61812903,8.70857143 5.2743871,8.58514286 4.96632,8.45257143 L4.74193548,8.35142857 L4.74193548,12 C4.89580645,12.4314286 7.28516129,13.5714286 12,13.5714286 C16.5851104,13.5714286 18.9682727,12.4933478 19.2406072,12.0146127 L19.2580645,11.9771429 L19.2580645,8.35142857 Z M12,4.71428571 C7.36354839,4.71428571 4.97709677,5.81714286 4.74774194,6.28571429 C4.97709677,6.75428571 7.36354839,7.85714286 12,7.85714286 C16.6364516,7.85714286 19.0229032,6.75428571 19.2522581,6.28571429 C19.0229032,5.81714286 16.6364516,4.71428571 12,4.71428571 Z" id="Combined-Shape"></path>
            <path d="M11.7594174,10.6222127 C12.2797026,10.5090933 12.7932392,10.8391322 12.9063587,11.3594174 C13.0194781,11.8797026 12.6894393,12.3932392 12.169154,12.5063587 C11.6488688,12.6194781 11.1353322,12.2894393 11.0222127,11.769154 C10.9090933,11.2488688 11.2391322,10.7353322 11.7594174,10.6222127" id="Fill-3"></path>
            <path d="M11.7594174,16.3222127 C12.2797026,16.2090933 12.7932392,16.5391322 12.9063587,17.0594174 C13.0194781,17.5797026 12.6894393,18.0932392 12.169154,18.2063587 C11.6488688,18.3194781 11.1353322,17.9894393 11.0222127,17.469154 C10.9090933,16.9488688 11.2391322,16.4353322 11.7594174,16.3222127" id="Fill-3"></path>
        </g>
        <path d="M23.0010765,7 C22.7189358,7 22.4477067,7.14081359 22.2570149,7.38645507 C22.0756759,7.61989271 21.985526,7.92092088 22.0018932,8.20317389 L22.0018932,12.7968261 C22.0018932,13.4602146 22.4503047,14 23.0010765,14 C23.5612011,14 24,13.4595887 24,12.7696021 L24,8.20317389 C24,7.53978543 23.5518484,7 23.0010765,7" id="Fill-1" fill="#091625"></path>
        <path d="M36.6807807,12.3088415 C36.2694895,11.897191 35.5728857,11.8969147 35.1621458,12.3088415 L32.3126034,15.1647017 C32.1138494,15.3638963 32,15.6368565 32,15.9136846 C32,16.5228722 32.4655971,17 33.0599294,17 C33.3358694,17 33.6082258,16.8858982 33.8061528,16.6878087 L36.6807807,13.8308434 C37.1064064,13.4039977 37.1064064,12.7354109 36.6807807,12.3088415" id="Fill-3" fill="#091625"></path>
        <polygon id="Clip-6" points="36 22 43 22 43 24 36 24"></polygon>
        <path d="M41.7921285,22 L37.2078715,22 C36.5418929,22 36,22.4485821 36,22.999883 C36,23.5514439 36.5418929,24.000026 37.2078715,24.000026 L41.7921285,24.000026 C42.4581071,24.000026 43,23.5514439 43,22.999883 C43,22.4485821 42.4581071,22 41.7921285,22" id="Fill-5" fill="#091625"></path>
        <polygon id="Clip-9" points="5 22 12 22 12 24 5 24"></polygon>
        <path d="M10.7918144,22 L6.20755733,22 C5.54157878,22 5,22.4485821 5,22.999883 C5,23.5514439 5.54157878,24.000026 6.20755733,24.000026 L10.8191446,24.000026 C11.4810394,24.000026 12,23.5605456 12,22.999883 C12,22.4485821 11.4577929,22 10.7918144,22" id="Fill-8" fill="#091625"></path>
        <path d="M11.8355346,12.3074776 C11.4253517,11.8975075 10.7296923,11.8975075 10.3189588,12.3074776 C9.8939101,12.7320208 9.8939101,13.3974318 10.3175823,13.8208752 L13.1646376,16.6884667 C13.3633974,16.8864402 13.6353845,17 13.9109504,17 C14.1909209,17 14.4642845,16.8809409 14.6812135,16.6642699 C15.1062622,16.2397267 15.1062622,15.5743157 14.6812135,15.1494975 L11.8355346,12.3074776 Z" id="Fill-11" fill="#091625"></path>
    </g>
</svg>