<?xml version="1.0" encoding="utf-8"?>
<!-- Generator: Adobe Illustrator 24.0.2, SVG Export Plug-In . SVG Version: 6.00 Build 0)  -->
<svg version="1.1" baseProfile="tiny" id="Calque_1"
	 xmlns="http://www.w3.org/2000/svg" xmlns:xlink="http://www.w3.org/1999/xlink" x="0px" y="0px" width="30px" height="30px"
	 viewBox="0 0 30 30" xml:space="preserve">
<g id="_x30_2.Icons_x2F_Description">
	<path id="Combined-Shape" fill-rule="evenodd" fill="#091625" d="M15,26.6C8.6,26.6,3.4,21.4,3.4,15S8.6,3.4,15,3.4
		S26.6,8.6,26.6,15S21.4,26.6,15,26.6z M15,24.5c5.2,0,9.5-4.2,9.5-9.5S20.2,5.5,15,5.5S5.5,9.8,5.5,15S9.8,24.5,15,24.5z"/>
	<path id="Path_1_" fill-rule="evenodd" fill="#091625" d="M16.3,10.5c0,0.7-0.6,1.3-1.3,1.3s-1.3-0.6-1.3-1.3s0.6-1.3,1.3-1.3
		C15.7,9.2,16.3,9.8,16.3,10.5"/>
	<path id="Path" fill-rule="evenodd" fill="#091625" d="M15,13.3c-0.7,0-1.3,0.6-1.3,1.3v5.3c0,0.7,0.6,1.3,1.3,1.3s1.3-0.6,1.3-1.3
		v-5.3C16.3,13.8,15.7,13.3,15,13.3"/>
</g>
</svg>
