<?xml version="1.0" encoding="UTF-8"?>
<svg width="24px" height="24px" viewBox="0 0 24 24" version="1.1" xmlns="http://www.w3.org/2000/svg" xmlns:xlink="http://www.w3.org/1999/xlink">
    <title>02.Icons/Link</title>
    <g id="02.Icons/Link" stroke="none" stroke-width="1" fill="none" fill-rule="evenodd">
        <path d="M9.7255156,17.2647859 L9.72572059,17.2644228 L8.79589067,18.1736403 C7.99114501,18.958692 6.68019961,18.958692 5.87430601,18.1736403 C5.48868077,17.7964233 5.27614822,17.2937901 5.27614822,16.7595709 C5.27614822,16.2253517 5.48962372,15.7248968 5.87430601,15.3454612 L9.29520278,12.0078315 C10.0035216,11.3154402 11.3373848,10.296539 12.3096474,11.2454911 C12.7561544,11.6815234 13.4759936,11.6793047 13.9202457,11.2398032 C14.3622429,10.800463 14.359865,10.0910483 13.9133581,9.65614553 C12.262541,8.04320123 9.81981053,8.34131194 7.69276308,10.418486 L4.2718663,13.7574065 C3.45109051,14.5582311 2.9999918,15.6256207 2.9999918,16.7596919 C2.9999918,17.8959818 3.45223845,18.9610721 4.2718663,19.762058 C5.1167898,20.5866427 6.22565709,21.000004 7.33563131,21.000004 C8.44560553,21.000004 9.55574375,20.5877722 10.3993963,19.762058 L11.3303332,18.8528405 C11.7768401,18.4179378 11.779218,17.7097736 11.3361139,17.2715629 C10.8929687,16.8333523 10.1721456,16.8309723 9.7255156,17.2647859" id="Fill-1" fill="#091625"></path>
        <path d="M19.7270569,4.34183708 L19.7268519,4.342075 C17.9511022,2.63886978 15.4694965,2.54667496 13.8280062,4.12338491 L12.6697678,5.23586914 C12.2232887,5.66448585 12.2197631,6.3605667 12.6628806,6.79136437 C13.1059981,7.22323268 13.8256285,7.2255326 14.2722716,6.79695554 L15.4316579,5.68558161 C16.2810382,4.86835875 17.3955758,5.20712021 18.1245531,5.90427171 C18.5101543,6.27618365 18.7237804,6.76919795 18.7237804,7.29433175 C18.7237804,7.81942589 18.5103182,8.31247985 18.1245531,8.68328149 L14.4743781,12.185178 C12.805421,13.785125 12.022494,13.03571 11.6884648,12.714753 C11.2419857,12.2861363 10.5221913,12.2895465 10.0803446,12.7203442 C9.63837497,13.1511022 9.63948184,13.8495623 10.086125,14.2758394 C10.8528589,15.0108205 11.7275333,15.375 12.6435308,15.375 C13.7649146,15.375 14.9507428,14.8286515 16.0791367,13.7462644 L19.7293116,10.2454385 C20.5466337,9.45716287 21,8.40899693 21,7.29417313 C21,6.17938899 20.5465927,5.13027136 19.7270569,4.34183708" id="Fill-4" fill="#091625"></path>
    </g>
</svg>