<?xml version="1.0" encoding="UTF-8"?>
<svg width="38px" height="38px" viewBox="0 0 38 38" version="1.1" xmlns="http://www.w3.org/2000/svg" xmlns:xlink="http://www.w3.org/1999/xlink">
    <title>12.Elements Map/Map</title>
    <defs>
        <rect id="path-1" x="0" y="0" width="38" height="38" rx="3"></rect>
        <filter x="-39.5%" y="-39.5%" width="178.9%" height="178.9%" filterUnits="objectBoundingBox" id="filter-2">
            <feOffset dx="0" dy="0" in="SourceAlpha" result="shadowOffsetOuter1"></feOffset>
            <feGaussianBlur stdDeviation="5" in="shadowOffsetOuter1" result="shadowBlurOuter1"></feGaussianBlur>
            <feColorMatrix values="0 0 0 0 0.0352941176   0 0 0 0 0.0862745098   0 0 0 0 0.145098039  0 0 0 0.2 0" type="matrix" in="shadowBlurOuter1"></feColorMatrix>
        </filter>
        <path d="M4.41668512,16.5871353 C4.61128416,16.1979372 5.08454524,16.0401835 5.47374332,16.2347825 L5.47374332,16.2347825 L13.0002373,19.9980295 L20.5267312,16.2347825 C20.9159293,16.0401835 21.3891903,16.1979372 21.5837894,16.5871353 C21.7783884,16.9763333 21.6206347,17.4495944 21.2314366,17.6441935 L21.2314366,17.6441935 L13.35259,21.5836168 C13.1307788,21.6945224 12.8696957,21.6945224 12.6478845,21.5836168 L12.6478845,21.5836168 L4.76903786,17.6441935 C4.37983977,17.4495944 4.22208608,16.9763333 4.41668512,16.5871353 Z M4.41668512,12.6477119 C4.61128416,12.2585138 5.08454524,12.1007601 5.47374332,12.2953592 L5.47374332,12.2953592 L13.0002373,16.0586062 L20.5267312,12.2953592 C20.9159293,12.1007601 21.3891903,12.2585138 21.5837894,12.6477119 C21.7783884,13.03691 21.6206347,13.5101711 21.2314366,13.7047701 L21.2314366,13.7047701 L13.35259,17.6441935 C13.1307788,17.7550991 12.8696957,17.7550991 12.6478845,17.6441935 L12.6478845,17.6441935 L4.76903786,13.7047701 C4.37983977,13.5101711 4.22208608,13.03691 4.41668512,12.6477119 Z M13.35259,4.41651253 L21.2314366,8.35593586 C21.8121459,8.64629048 21.8121459,9.47499218 21.2314366,9.7653468 L13.35259,13.7047701 C13.1307788,13.8156757 12.8696957,13.8156757 12.6478845,13.7047701 L4.76903786,9.7653468 C4.18832861,9.47499218 4.18832861,8.64629048 4.76903786,8.35593586 L12.6478845,4.41651253 C12.8696957,4.30560693 13.1307788,4.30560693 13.35259,4.41651253 Z M13.0002372,6.00209984 L6.88315426,9.06064133 L13.0002372,12.1191828 L19.1173202,9.06064133 L13.0002372,6.00209984 Z" id="path-3"></path>
    </defs>
    <g id="12.Elements-Map/Map" stroke="none" stroke-width="1" fill="none" fill-rule="evenodd">
        <g id="Rectangle">
            <use fill="black" fill-opacity="1" filter="url(#filter-2)" xlink:href="#path-1"></use>
            <use fill="#FFFFFF" fill-rule="evenodd" xlink:href="#path-1"></use>
        </g>
        <g id="02.Icons/Fullscreen" transform="translate(6.000000, 6.000000)">
            <mask id="mask-4" fill="white">
                <use xlink:href="#path-3"></use>
            </mask>
            <use id="Combined-Shape" fill="#091625" xlink:href="#path-3"></use>
        </g>
    </g>
</svg>