<?xml version="1.0" encoding="UTF-8"?>
<svg width="24px" height="24px" viewBox="0 0 24 24" version="1.1" xmlns="http://www.w3.org/2000/svg" xmlns:xlink="http://www.w3.org/1999/xlink">
    <title>02.Icons/Personnaliser</title>
    <g id="02.Icons/Personnaliser" stroke="none" stroke-width="1" fill="none" fill-rule="evenodd">
        <path d="M9.73144512,16.4613129 C9.03210243,15.2143897 8.2153641,14.5231606 7.56130259,14.1385796 L15.6850819,5.93362183 C16.2754143,5.31524281 17.3453918,5.31524281 17.9155993,5.93362183 C18.532765,6.55538923 18.532765,7.5702085 17.9155993,8.18689334 L9.73144512,16.4613129 Z M5.84397188,18.1267008 L6.72779345,15.3448423 C7.20240731,15.5921939 7.89671875,16.1292518 8.50885323,17.2609702 L5.84397188,18.1267008 Z M20.6307931,11.9784885 C20.3490435,11.6938648 19.8912005,11.6938648 19.6027426,11.9784885 L19.0627226,12.5257116 L17.3705481,10.8162748 L18.9453269,9.22543126 C20.1276689,8.03102794 20.1276689,6.08948723 18.9453269,4.89508391 C17.8652869,3.7616714 15.8343421,3.64307817 14.6570314,4.89508391 L5.75676368,13.8946164 C5.67458672,13.9776317 5.61253473,14.0775888 5.57731603,14.1910995 L4.03440172,19.0415629 C3.95222476,19.302468 4.01930799,19.5938686 4.21384936,19.7853119 C4.44528651,19.9869204 4.68846322,20.0445229 4.95008782,19.9665902 L9.75157009,18.4028536 C9.86058034,18.3672756 9.96288227,18.3045907 10.0450592,18.2215754 L16.3475288,11.8548127 L18.0397033,13.5642495 L15.3295408,16.3003649 C15.0461141,16.5866829 15.0461141,17.0491965 15.3295408,17.3405971 C15.6481861,17.6506337 16.0758417,17.6048906 16.3575913,17.3405971 L20.6307931,13.0238032 C20.9125427,12.7324027 20.9125427,12.2698891 20.6307931,11.9784885 L20.6307931,11.9784885 Z" id="Fill-1" fill="#091625"></path>
    </g>
</svg>