<?xml version="1.0" encoding="UTF-8"?>
<svg width="90px" height="107px" viewBox="0 0 90 107" version="1.1" xmlns="http://www.w3.org/2000/svg" xmlns:xlink="http://www.w3.org/1999/xlink">
    <title>02.Icons/update1</title>
    <g id="02.Icons/update1" stroke="none" stroke-width="1" fill="none" fill-rule="evenodd">
        <path d="M48.5,41.7255835 C49.5,41.7255835 50.3,42.5255835 50.3,43.5255835 L50.3,43.5255835 L50.3,90.2255835 C50.3,91.2255835 49.5,92.0255835 48.5,92.0255835 L48.5,92.0255835 L1.8,92.0255835 C0.8,92.0255835 0,91.2255835 0,90.2255835 L0,90.2255835 L0,43.5255835 C0,42.5255835 0.8,41.7255835 1.8,41.7255835 L1.8,41.7255835 Z M46.7,45.3245835 L3.599,45.3245835 L3.599,88.4255835 L46.7,88.4255835 L46.7,45.3245835 Z" id="Combined-Shape" fill="#091625"></path>
        <path d="M89.5002,36.9254835 C88.8992,36.3254835 87.8002,36.3254835 87.2002,36.9254835 L79.0002,45.1254835 C79.0002,44.2254835 78.8992,43.2254835 78.8992,42.0254835 C78.3992,33.9254835 70.8992,15.9254835 51.8002,15.0254835 C32.5002,14.2254835 23.8002,32.5254835 23.7002,32.7254835 C23.3002,33.5254835 23.7002,34.5254835 24.5002,34.9254835 C25.3002,35.3254835 26.3002,34.9254835 26.7002,34.1254835 C26.8002,33.9254835 34.4002,17.5254835 51.7002,18.3254835 C68.8992,19.0254835 75.3002,36.1254835 75.6002,42.2254835 C75.7002,43.3254835 75.7002,44.2254835 75.7002,45.0254835 L66.8002,35.9254835 C66.2002,35.3254835 65.1002,35.3254835 64.5002,35.9254835 C63.8992,36.5254835 63.8992,37.6254835 64.5002,38.2254835 L76.3002,50.0254835 C76.6002,50.3254835 77.0002,50.5254835 77.5002,50.5254835 C77.8992,50.5254835 78.3002,50.3254835 78.7002,50.0254835 L89.6002,39.1254835 C90.2002,38.5254835 90.2002,37.5254835 89.5002,36.9254835" id="Fill-3" fill="#091625"></path>
        <path d="M25.5,57.0005835 C26.3284271,57.0005835 27,57.6721563 27,58.5005835 L27,65.4995835 L34,65.5005835 C34.8284271,65.5005835 35.5,66.1721563 35.5,67.0005835 C35.5,67.8290106 34.8284271,68.5005835 34,68.5005835 L27,68.4995835 L27,75.5005835 C27,76.3290106 26.3284271,77.0005835 25.5,77.0005835 C24.6715729,77.0005835 24,76.3290106 24,75.5005835 L24,68.4995835 L17,68.5005835 C16.1715729,68.5005835 15.5,67.8290106 15.5,67.0005835 C15.5,66.1721563 16.1715729,65.5005835 17,65.5005835 L24,65.4995835 L24,58.5005835 C24,57.6721563 24.6715729,57.0005835 25.5,57.0005835 Z" id="Combined-Shape" fill="#091625"></path>
    </g>
</svg>