<?xml version="1.0" encoding="UTF-8"?>
<svg width="90px" height="107px" viewBox="0 0 90 107" version="1.1" xmlns="http://www.w3.org/2000/svg" xmlns:xlink="http://www.w3.org/1999/xlink">
    <title>02.Icons/update2</title>
    <g id="02.Icons/update2" stroke="none" stroke-width="1" fill="none" fill-rule="evenodd">
        <path d="M71.5000378,56.7250119 C72.5000378,56.7250119 73.3000378,57.5250119 73.3000378,58.5250119 L73.3000378,58.5250119 L73.3000378,105.225012 C73.3000378,106.225012 72.5000378,107.025012 71.5000378,107.025012 L71.5000378,107.025012 L24.8000378,107.025012 C23.8000378,107.025012 23.0000378,106.225012 23.0000378,105.225012 L23.0000378,105.225012 L23.0000378,58.5250119 C23.0000378,57.5250119 23.8000378,56.7250119 24.8000378,56.7250119 L24.8000378,56.7250119 Z M69.7000378,60.3240119 L26.5990378,60.3240119 L26.5990378,103.425012 L69.7000378,103.425012 L69.7000378,60.3240119 Z" id="Combined-Shape" fill="#091625"></path>
        <path d="M55.8592793,18.252291 C50.5332251,21.909976 46.1163502,26.7598216 43.2007063,32.4581841 C40.3923794,37.9482422 38.9212935,44.0667443 39.0032885,50.2076068 C39.0864892,56.4932231 40.7806495,62.723527 43.8952518,68.2241769 C47.3233641,74.2779516 52.4589006,79.4055364 58.5988753,82.863155 C64.6640898,86.2797012 71.6794811,88.0719433 78.6816085,87.997801 C79.5184393,87.9883862 80.3552701,87.9507266 81.1896893,87.8895298 C82.1314254,87.820095 83.0442221,87.1269237 82.9984014,86.1242378 C82.9574039,85.2274695 82.2001564,84.2848035 81.1896893,84.3589458 C79.5522019,84.4801625 77.9074797,84.5025229 76.2675808,84.4177889 C75.4645126,84.3754219 74.663856,84.3084584 73.8644053,84.2165456 C73.7462361,84.2024232 73.6280669,84.1883009 73.5098977,84.1741786 C73.546072,84.178886 73.7631174,84.2083075 73.5484836,84.178886 C73.3422904,84.1506413 73.1360972,84.1212198 72.9299041,84.0894446 C72.5187235,84.025894 72.107543,83.9564592 71.698774,83.8811401 C70.0902261,83.5810405 68.5021769,83.1785539 66.9466845,82.677211 C66.1822021,82.4300701 65.4249547,82.159392 64.6773537,81.8651766 C64.5664193,81.8216328 64.455485,81.776912 64.3457565,81.7321913 C64.3819307,81.7463136 64.5567729,81.8204559 64.3650494,81.7404293 C64.1721201,81.6604028 63.9803966,81.5780225 63.789879,81.4944653 C63.4076378,81.327351 63.0278083,81.1531755 62.6515961,80.9731157 C61.163629,80.2611146 59.7251,79.4537878 58.3480672,78.5546657 C57.6667856,78.1098121 56.9963563,77.6461288 56.3488374,77.1553776 C56.558648,77.3142539 56.1209397,76.9764947 56.0666783,76.9341276 C55.9231872,76.8223258 55.7809018,76.7081703 55.6398223,76.5940147 C55.2853147,76.3068606 54.9368362,76.0138221 54.5931809,75.7148993 C53.317436,74.6015885 52.1212744,73.4035436 51.0143426,72.1301797 C50.427114,71.4546613 50.0400496,70.9756787 49.5902832,70.3731257 C49.1007252,69.7199677 48.6340774,69.0503336 48.1891343,68.367754 C47.374008,67.1143967 46.6360535,65.812788 45.9825055,64.472343 C45.8148982,64.1298763 45.6533199,63.7838791 45.4977707,63.4355282 C45.457979,63.3472636 45.3036356,62.9906746 45.4193932,63.2613527 C45.3337808,63.0624631 45.25058,62.8623967 45.1697909,62.6623303 C44.8960725,61.9891656 44.6440586,61.3077629 44.4125434,60.6204758 C43.9458957,59.2329563 43.5648604,57.818369 43.2730548,56.3861288 C43.1995005,56.0236555 43.1307695,55.6611822 43.0680674,55.2963552 C43.0415397,55.1410095 43.0150119,54.9844869 42.9908957,54.8279644 C42.9728086,54.7173394 42.8908137,54.1477385 42.9414576,54.5160961 C42.8449929,53.8135099 42.7726445,53.1085699 42.7195889,52.4024531 C42.612272,50.969036 42.5917733,49.5297346 42.6568869,48.0927869 C42.6906495,47.3631329 42.7461167,46.6358326 42.8244942,45.9097092 C42.8413755,45.7543635 42.8594626,45.5990178 42.8775498,45.4436721 C42.8896078,45.342462 42.9498983,44.8893704 42.9257821,45.0576616 C42.8992543,45.2459594 42.9619563,44.8211124 42.9728086,44.7505008 C43.0041596,44.54455 43.0379222,44.3385993 43.0728907,44.1326486 C43.3152581,42.7192381 43.6432379,41.31995 44.0532126,39.9441991 C44.2618174,39.2427897 44.4921268,38.5472647 44.7441406,37.8588008 C44.861104,37.5386945 44.9828906,37.2209419 45.1082947,36.9043662 C45.1661735,36.7584354 45.2252581,36.6125046 45.2855485,36.4665738 C45.3156937,36.3936084 45.3458389,36.3218199 45.3759841,36.2488545 C45.5689134,35.7828174 45.2939891,36.431268 45.4121583,36.1641205 C46.5866154,33.4973527 48.0806115,30.9682777 49.8676191,28.6475071 C49.9134398,28.5874872 50.1642479,28.2697346 50.0750181,28.3815365 C49.9459966,28.5427665 50.1582188,28.2803264 50.1871582,28.2450206 C50.2378022,28.1826469 50.2896519,28.1190964 50.3415017,28.0567227 C50.5826633,27.7648611 50.8286481,27.4753532 51.0782504,27.1905528 C51.5822782,26.6174213 52.1031872,26.0584122 52.6433892,25.517056 C53.71897,24.4366973 54.8632819,23.4222428 56.0666783,22.4795769 C56.1993172,22.3748362 56.3331619,22.2724493 56.4682124,22.1700624 C56.6309965,22.0464919 56.4682124,22.1700624 56.4404788,22.1912459 C56.5309144,22.1241648 56.6225558,22.0559068 56.7141973,21.9900026 C57.036148,21.7546303 57.3617162,21.5263192 57.689696,21.3003618 C58.4879409,20.7519444 58.8617414,19.7574966 58.3384207,18.8854424 C57.8729788,18.1157751 56.6623475,17.7015199 55.8592793,18.252291" id="Fill-1" fill="#091625" transform="translate(61.000047, 53.000012) scale(-1, 1) translate(-61.000047, -53.000012) "></path>
        <path d="M7.80098662,14.6621345 C9.4251924,14.5315041 11.0541964,14.4985523 12.6820009,14.5726939 C13.507299,14.6103531 14.332597,14.6750798 15.1542964,14.7668741 C15.3306319,14.7868806 15.5057678,14.8080639 15.6821033,14.8292472 C15.9819936,14.8669064 15.4301955,14.7927648 15.7300857,14.8363083 C15.8177737,14.8492536 15.9052217,14.8610221 15.9929096,14.8739675 C16.4006404,14.9339868 16.8084912,15.0010673 17.2151424,15.074032 C18.8405478,15.3670676 20.4467601,15.7660198 22.0193848,16.266181 C22.778707,16.5086121 23.5308318,16.7745802 24.2733602,17.0640853 C24.4664895,17.1394037 24.6584193,17.215899 24.8491495,17.2947479 C24.604559,17.1947157 25.0038929,17.3618284 25.0734674,17.3912497 C25.4813182,17.5666003 25.8855703,17.7501889 26.2862237,17.9396618 C32.2504417,20.7664555 37.1986314,25.0607812 40.7217425,30.4225099 C41.5578366,31.6946848 42.3135601,33.0174642 42.9829152,34.3814334 C43.1388582,34.6991829 43.2900029,35.0192861 43.4363493,35.341743 C43.5155204,35.51474 43.5922923,35.6877369 43.6678646,35.8619107 C43.5431103,35.5759362 43.7602308,36.0843354 43.8022155,36.1878982 C44.076915,36.8598796 44.3312219,37.5400989 44.5651364,38.2285561 C45.0365639,39.6148855 45.421623,41.0282823 45.7191142,42.4605088 C45.8690593,43.1842716 45.9890154,43.9115649 46.1017742,44.6412119 C46.0489935,44.2987485 46.1173685,44.7624274 46.1317632,44.875405 C46.1509562,45.0319261 46.1689496,45.1884472 46.186943,45.3449682 C46.2301272,45.7356824 46.2661141,46.1275735 46.2973026,46.5194645 C46.4076623,47.9528679 46.4316535,49.3921554 46.3692763,50.8290893 C46.3392873,51.5328456 46.2877062,52.2342482 46.2157325,52.934474 C46.1785461,53.2969438 46.1353619,53.6594136 46.0873794,54.0218834 C46.1281645,53.7064876 46.0825812,54.0477741 46.0633882,54.1713434 C46.0320797,54.3772921 45.9998115,54.5832409 45.9650242,54.7891896 C45.7263115,56.2025865 45.4048292,57.603038 44.9993775,58.9787757 C44.8002503,59.6554645 44.5819302,60.326269 44.3432175,60.9911892 C44.2196628,61.3360063 44.0901101,61.6796465 43.9557593,62.020933 C43.8981804,62.1668624 43.8394019,62.3127918 43.7806234,62.4587212 C43.7362396,62.5658146 43.5239173,63.0659758 43.655869,62.7623485 C42.4958934,65.4314444 41.0120363,67.9640256 39.2402845,70.2871276 C39.1755082,70.3730376 39.1095323,70.4577708 39.0435564,70.542504 C39.0327604,70.5554494 38.8684205,70.7649287 38.9847779,70.6178224 C39.1023349,70.4707162 38.9343964,70.6790186 38.9247999,70.691964 C38.8564249,70.775638 38.7892495,70.8591944 38.7208745,70.942633 C38.4809623,71.2344918 38.2362518,71.5239969 37.9879426,71.8087946 C37.5045195,72.3619141 37.0043025,72.8997346 36.4884912,73.4235506 C35.4220814,74.5061349 34.286097,75.5229333 33.0913341,76.4679439 C32.9377903,76.5903363 32.7818473,76.710375 32.6259044,76.8292368 C32.4639636,76.9528061 32.6259044,76.8292368 32.6534943,76.8080535 C32.5635272,76.875134 32.4723605,76.9433913 32.3811939,77.0092949 C32.0609111,77.2446649 31.7370296,77.4729738 31.4107489,77.698929 C30.6166395,78.2461643 30.2447755,79.2417794 30.765385,80.1138252 C31.224817,80.884662 32.4279768,81.2989132 33.2267645,80.7469706 C38.525346,77.0904975 42.920538,72.2395217 45.8210769,66.5412139 C48.638846,61.0041346 50.1035101,54.8280257 49.9943501,48.6354409 C49.8839904,42.3475312 48.1734163,36.1219946 45.0473599,30.6319892 C41.6010208,24.5806264 36.4573026,19.4613288 30.3155496,16.030811 C24.2553667,12.6461904 17.2607258,10.8867996 10.2876769,11.0056614 C9.45758055,11.0197836 8.62868381,11.0633271 7.80098662,11.1292307 C6.86532894,11.2045491 5.95606159,11.8871221 6.00164492,12.8945057 C6.04243,13.7889117 6.79695395,14.7433371 7.80098662,14.6621345" id="Fill-4" fill="#091625" transform="translate(28.000019, 46.000012) scale(-1, 1) translate(-28.000019, -46.000012) "></path>
        <path d="M49.4240151,22.9582502 C46.1122621,19.689616 42.7993008,16.4197892 39.4875478,13.151155 C39.0187553,12.6884661 38.5511711,12.2269698 38.0823786,11.764281 L38.0823786,14.2935671 C41.4158797,11.0034679 44.7481726,7.71456117 48.0816737,4.42446197 C48.5480498,3.96415813 49.0144258,3.50385429 49.4808018,3.04355045 C50.1731165,2.36024967 50.1731165,1.1975651 49.4808018,0.514264328 C48.7860707,-0.171421443 47.611673,-0.171421443 46.9181502,0.514264328 C43.584649,3.80436353 40.2523561,7.09327023 36.918855,10.3833694 C36.452479,10.8436733 35.986103,11.3039771 35.519727,11.764281 C34.8274123,12.4475817 34.8262041,13.6090738 35.519727,14.2935671 C38.83148,17.5622013 42.1444412,20.8320281 45.4561942,24.1006623 L46.8613634,25.4875363 C47.5537989,26.1708371 48.7318212,26.1708371 49.4240151,25.4875363 C50.1187462,24.8030431 50.117538,23.643936 49.4240151,22.9582502" id="Fill-7" fill="#091625" transform="translate(42.500038, 13.000006) scale(-1, 1) translate(-42.500038, -13.000006) "></path>
        <path d="M39.4881375,76.0483574 C42.5904706,79.323947 45.6939356,82.6009707 48.7962688,85.8765604 L50.1126948,87.2665557 L50.1126948,84.7316755 C47.0102484,88.0073846 43.9067834,91.2842888 40.8044503,94.559998 C40.3653021,95.0236883 39.9272857,95.4861835 39.4881375,95.9498738 C38.8396016,96.6347731 38.8396016,97.7999742 39.4881375,98.4846345 C40.138937,99.1718044 41.2390712,99.1718044 41.8887389,98.4846345 C44.9910721,95.2090449 48.0945371,91.9320212 51.1968702,88.6564316 C51.6361316,88.1927413 52.0740348,87.730246 52.5132962,87.2665557 C53.1617189,86.581776 53.1628508,85.4176504 52.5132962,84.7316755 C49.4108499,81.4560859 46.3073849,78.1790622 43.2050518,74.9034726 L41.8887389,73.5135967 C41.240203,72.828817 40.1366734,72.828817 39.4881375,73.5135967 C38.8373379,74.2007667 38.8373379,75.3611875 39.4881375,76.0483574" id="Fill-10" fill="#091625" transform="translate(46.000038, 86.000012) scale(-1, 1) translate(-46.000038, -86.000012) "></path>
    </g>
</svg>