<?xml version="1.0" encoding="UTF-8"?>
<svg width="24px" height="24px" viewBox="0 0 24 24" version="1.1" xmlns="http://www.w3.org/2000/svg" xmlns:xlink="http://www.w3.org/1999/xlink">
    <title>02.Icons/User</title>
    <defs>
        <path d="M12.5,13.5 C14.9162458,13.5 16.875,15.4587542 16.875,17.875 L16.875,17.875 L16.875,19.625 C16.875,20.1082492 16.4832492,20.5 16,20.5 C15.5167508,20.5 15.125,20.1082492 15.125,19.625 L15.125,19.625 L15.125,17.875 C15.125,16.4252525 13.9497475,15.25 12.5,15.25 L12.5,15.25 L6.375,15.25 C4.92525253,15.25 3.75,16.4252525 3.75,17.875 L3.75,17.875 L3.75,19.625 C3.75,20.1082492 3.35824916,20.5 2.875,20.5 C2.39175084,20.5 2,20.1082492 2,19.625 L2,19.625 L2,17.875 C2,15.4587542 3.95875422,13.5 6.375,13.5 L6.375,13.5 Z M9.4375,3 C11.8537458,3 13.8125,4.95875422 13.8125,7.375 C13.8125,9.79124578 11.8537458,11.75 9.4375,11.75 C7.02125422,11.75 5.0625,9.79124578 5.0625,7.375 C5.0625,4.95875422 7.02125422,3 9.4375,3 Z M9.4375,4.75 C7.98775253,4.75 6.8125,5.92525253 6.8125,7.375 C6.8125,8.82474747 7.98775253,10 9.4375,10 C10.8872475,10 12.0625,8.82474747 12.0625,7.375 C12.0625,5.92525253 10.8872475,4.75 9.4375,4.75 Z" id="path-1"></path>
        <path d="M17.4937184,10.2562816 C17.1520097,9.91457281 16.5979903,9.91457281 16.2562816,10.2562816 C15.9145728,10.5979903 15.9145728,11.1520097 16.2562816,11.4937184 L18.0062816,13.2437184 C18.3479903,13.5854272 18.9020097,13.5854272 19.2437184,13.2437184 L22.7437184,9.74371843 C23.0854272,9.40200968 23.0854272,8.84799032 22.7437184,8.50628157 C22.4020097,8.16457281 21.8479903,8.16457281 21.5062816,8.50628157 L18.625,11.3875631 L17.4937184,10.2562816 Z" id="path-3"></path>
    </defs>
    <g id="02.Icons/User" stroke="none" stroke-width="1" fill="none" fill-rule="evenodd">
        <mask id="mask-2" fill="white">
            <use xlink:href="#path-1"></use>
        </mask>
        <use id="Combined-Shape" fill="#091625" xlink:href="#path-1"></use>
        <mask id="mask-4" fill="white">
            <use xlink:href="#path-3"></use>
        </mask>
        <use id="Shape" fill="#3993F3" xlink:href="#path-3"></use>
    </g>
</svg>