<!-- Generated by IcoMoon.io -->
<svg version="1.1" xmlns="http://www.w3.org/2000/svg" width="32" height="32" viewBox="0 0 32 32">
<title>check</title>
<path d="M29.902 3.562c-0.539 0.027-1.018 0.265-1.361 0.631l-0.001 0.001-17.792 18.486-7.302-7.587c-0.365-0.383-0.879-0.622-1.449-0.622-1.104 0-1.998 0.895-1.998 1.998 0 0.543 0.216 1.035 0.567 1.395l-0-0 10.182 10.576 20.672-21.476c0.358-0.361 0.579-0.858 0.579-1.407 0-1.104-0.895-1.998-1.998-1.998-0.035 0-0.070 0.001-0.104 0.003l0.005-0z"></path>
</svg>
