<?xml version="1.0" encoding="UTF-8" standalone="no"?>
<!-- Generator: Adobe Illustrator 24.1.0, SVG Export Plug-In . SVG Version: 6.00 Build 0)  -->

<svg
   xmlns:dc="http://purl.org/dc/elements/1.1/"
   xmlns:cc="http://creativecommons.org/ns#"
   xmlns:rdf="http://www.w3.org/1999/02/22-rdf-syntax-ns#"
   xmlns:svg="http://www.w3.org/2000/svg"
   xmlns="http://www.w3.org/2000/svg"
   xmlns:xlink="http://www.w3.org/1999/xlink"
   xmlns:sodipodi="http://sodipodi.sourceforge.net/DTD/sodipodi-0.dtd"
   xmlns:inkscape="http://www.inkscape.org/namespaces/inkscape"
   version="1.1"
   id="Calque_1"
   x="0px"
   y="0px"
   viewBox="0 0 157.2 138.10001"
   xml:space="preserve"
   sodipodi:docname="Republique-francaise-logo.svg"
   width="157.2"
   height="138.10001"
   inkscape:version="0.92.4 (f8dce91, 2019-08-02)"><metadata
   id="metadata1868"><rdf:RDF><cc:Work
       rdf:about=""><dc:format>image/svg+xml</dc:format><dc:type
         rdf:resource="http://purl.org/dc/dcmitype/StillImage" /><dc:title></dc:title></cc:Work></rdf:RDF></metadata><defs
   id="defs1866" /><sodipodi:namedview
   pagecolor="#ffffff"
   bordercolor="#666666"
   borderopacity="1"
   objecttolerance="10"
   gridtolerance="10"
   guidetolerance="10"
   inkscape:pageopacity="0"
   inkscape:pageshadow="2"
   inkscape:window-width="1867"
   inkscape:window-height="1025"
   id="namedview1864"
   showgrid="false"
   fit-margin-top="0"
   fit-margin-left="0"
   fit-margin-right="0"
   fit-margin-bottom="0"
   inkscape:zoom="1.26406"
   inkscape:cx="78.649997"
   inkscape:cy="69.050002"
   inkscape:window-x="53"
   inkscape:window-y="27"
   inkscape:window-maximized="1"
   inkscape:current-layer="Calque_1" />
<style
   type="text/css"
   id="style1607">
	.st0{fill:#FFFFFF;}
	.st1{clip-path:url(#SVGID_2_);}
	.st2{clip-path:url(#SVGID_4_);}
	.st3{clip-path:url(#SVGID_6_);}
	.st4{clip-path:url(#SVGID_8_);}
	.st5{clip-path:url(#SVGID_10_);}
	.st6{clip-path:url(#SVGID_12_);}
	.st7{clip-path:url(#SVGID_14_);}
	.st8{clip-path:url(#SVGID_16_);}
	.st9{clip-path:url(#SVGID_18_);}
	.st10{clip-path:url(#SVGID_20_);}
	.st11{clip-path:url(#SVGID_22_);}
	.st12{clip-path:url(#SVGID_24_);}
	.st13{clip-path:url(#SVGID_26_);}
	.st14{clip-path:url(#SVGID_28_);}
	.st15{clip-path:url(#SVGID_30_);}
	.st16{clip-path:url(#SVGID_32_);}
	.st17{clip-path:url(#SVGID_34_);}
	.st18{clip-path:url(#SVGID_36_);}
	.st19{clip-path:url(#SVGID_38_);}
	.st20{clip-path:url(#SVGID_40_);}
	.st21{clip-path:url(#SVGID_42_);}
	.st22{clip-path:url(#SVGID_44_);}
	.st23{clip-path:url(#SVGID_46_);fill:#273375;}
	.st24{clip-path:url(#SVGID_48_);fill:#E30613;}
	.st25{clip-path:url(#SVGID_50_);fill:#9D9D9C;}
</style>

<g
   id="g1861"
   transform="translate(-24.3,-24.3)">
	<g
   id="g1619">
		<defs
   id="defs1612">
			<rect
   id="SVGID_1_"
   x="24.299999"
   y="24.299999"
   width="157.2"
   height="138.10001" />
		</defs>
		<clipPath
   id="SVGID_2_">
			<use
   xlink:href="#SVGID_1_"
   style="overflow:visible"
   id="use1614"
   x="0"
   y="0"
   width="100%"
   height="100%" />
		</clipPath>
		<path
   class="st1"
   d="M 24.4,60.8 H 30 c 4,0 6.5,2.1 6.5,5.5 0,2.2 -1.1,3.8 -2.9,4.7 l 5.8,8.1 H 35 l -5,-7.4 h -1.9 v 7.4 h -3.7 z m 3.7,3.2 v 4.6 h 2.1 c 1.6,0 2.5,-0.8 2.5,-2.3 0,-1.4 -0.9,-2.2 -2.5,-2.2 z"
   clip-path="url(#SVGID_2_)"
   id="path1617"
   inkscape:connector-curvature="0" />
	</g>
	<g
   id="g1629">
		<defs
   id="defs1622">
			<rect
   id="SVGID_3_"
   x="24.299999"
   y="24.299999"
   width="157.2"
   height="138.10001" />
		</defs>
		<clipPath
   id="SVGID_4_">
			<use
   xlink:href="#SVGID_3_"
   style="overflow:visible"
   id="use1624"
   x="0"
   y="0"
   width="100%"
   height="100%" />
		</clipPath>
		<path
   class="st2"
   d="M 41.6,60.8 H 52.3 V 64 h -7 v 4.2 h 5.9 v 3.2 H 45.3 V 76 h 7 v 3.2 H 41.6 Z m 3.6,-1.6 3,-3.5 H 52 l -3.4,3.5 z"
   clip-path="url(#SVGID_4_)"
   id="path1627"
   inkscape:connector-curvature="0" />
	</g>
	<g
   id="g1639">
		<defs
   id="defs1632">
			<rect
   id="SVGID_5_"
   x="24.299999"
   y="24.299999"
   width="157.2"
   height="138.10001" />
		</defs>
		<clipPath
   id="SVGID_6_">
			<use
   xlink:href="#SVGID_5_"
   style="overflow:visible"
   id="use1634"
   x="0"
   y="0"
   width="100%"
   height="100%" />
		</clipPath>
		<path
   class="st3"
   d="m 56.6,60.8 h 6 c 4,0 6.5,2.1 6.5,5.5 0,3.4 -2.5,5.4 -6.5,5.4 h -2.3 v 7.4 h -3.7 z m 3.7,3.2 v 4.6 h 2.5 c 1.6,0 2.5,-0.8 2.5,-2.3 0,-1.4 -0.9,-2.2 -2.5,-2.2 z"
   clip-path="url(#SVGID_6_)"
   id="path1637"
   inkscape:connector-curvature="0" />
	</g>
	<g
   id="g1649">
		<defs
   id="defs1642">
			<rect
   id="SVGID_7_"
   x="24.299999"
   y="24.299999"
   width="157.2"
   height="138.10001" />
		</defs>
		<clipPath
   id="SVGID_8_">
			<use
   xlink:href="#SVGID_7_"
   style="overflow:visible"
   id="use1644"
   x="0"
   y="0"
   width="100%"
   height="100%" />
		</clipPath>
		<path
   class="st4"
   d="m 83,60.8 h 3.7 v 11.1 c 0,4.8 -2.8,7.7 -7.4,7.7 -4.6,0 -7.4,-2.9 -7.4,-7.7 V 60.8 h 3.7 v 11.5 c 0,2.5 1.4,3.9 3.7,3.9 2.3,0 3.7,-1.4 3.7,-3.9 z"
   clip-path="url(#SVGID_8_)"
   id="path1647"
   inkscape:connector-curvature="0" />
	</g>
	<g
   id="g1659">
		<defs
   id="defs1652">
			<rect
   id="SVGID_9_"
   x="24.299999"
   y="24.299999"
   width="157.2"
   height="138.10001" />
		</defs>
		<clipPath
   id="SVGID_10_">
			<use
   xlink:href="#SVGID_9_"
   style="overflow:visible"
   id="use1654"
   x="0"
   y="0"
   width="100%"
   height="100%" />
		</clipPath>
		<path
   class="st5"
   d="m 91.3,60.8 h 5.2 c 3.8,0 6.1,1.9 6.1,5 0,1.5 -0.7,2.7 -1.9,3.6 1.9,0.9 3,2.4 3,4.3 0,3.3 -2.6,5.4 -6.8,5.4 h -5.6 c 0,0 0,-18.3 0,-18.3 z m 3.8,3.2 v 4 h 1.6 c 1.4,0 2.2,-0.7 2.2,-2 0,-1.2 -0.8,-2 -2.2,-2 z m 0,7.2 V 76 h 2.1 c 1.7,0 2.8,-0.9 2.8,-2.4 0,-1.5 -1,-2.4 -2.8,-2.4 z"
   clip-path="url(#SVGID_10_)"
   id="path1657"
   inkscape:connector-curvature="0" />
	</g>
	<g
   id="g1669">
		<defs
   id="defs1662">
			<rect
   id="SVGID_11_"
   x="24.299999"
   y="24.299999"
   width="157.2"
   height="138.10001" />
		</defs>
		<clipPath
   id="SVGID_12_">
			<use
   xlink:href="#SVGID_11_"
   style="overflow:visible"
   id="use1664"
   x="0"
   y="0"
   width="100%"
   height="100%" />
		</clipPath>
		<polygon
   class="st6"
   points="118.2,79.1 107.5,79.1 107.5,60.8 111.2,60.8 111.2,75.7 118.2,75.7 "
   clip-path="url(#SVGID_12_)"
   id="polygon1667" />
	</g>
	<g
   id="g1679">
		<defs
   id="defs1672">
			<rect
   id="SVGID_13_"
   x="24.299999"
   y="24.299999"
   width="157.2"
   height="138.10001" />
		</defs>
		<clipPath
   id="SVGID_14_">
			<use
   xlink:href="#SVGID_13_"
   style="overflow:visible"
   id="use1674"
   x="0"
   y="0"
   width="100%"
   height="100%" />
		</clipPath>
		<rect
   x="121.5"
   y="60.799999"
   class="st7"
   width="3.7"
   height="18.299999"
   clip-path="url(#SVGID_14_)"
   id="rect1677" />
	</g>
	<g
   id="g1689">
		<defs
   id="defs1682">
			<rect
   id="SVGID_15_"
   x="24.299999"
   y="24.299999"
   width="157.2"
   height="138.10001" />
		</defs>
		<clipPath
   id="SVGID_16_">
			<use
   xlink:href="#SVGID_15_"
   style="overflow:visible"
   id="use1684"
   x="0"
   y="0"
   width="100%"
   height="100%" />
		</clipPath>
		<path
   class="st8"
   d="m 149.5,80.4 c 0.4,0 0.9,-0.1 1.3,-0.2 v 3.1 c -0.6,0.2 -1.1,0.3 -1.9,0.3 -2,0 -3.9,-0.8 -5.7,-2.4 L 141,79.3 c -0.8,0.2 -1.6,0.3 -2.5,0.3 -5.8,0 -9.7,-4.4 -9.7,-9.7 0,-5.2 4,-9.7 9.7,-9.7 5.8,0 9.7,4.4 9.7,9.7 0,3.1 -1.4,5.9 -3.6,7.6 l 1.1,1 c 1.4,1.4 2.7,1.9 3.8,1.9 M 144.4,70 c 0,-3.5 -2.5,-6.2 -5.9,-6.2 -3.5,0 -5.9,2.7 -5.9,6.2 0,3.5 2.5,6.2 5.9,6.2 3.4,0 5.9,-2.7 5.9,-6.2"
   clip-path="url(#SVGID_16_)"
   id="path1687"
   inkscape:connector-curvature="0" />
	</g>
	<g
   id="g1699">
		<defs
   id="defs1692">
			<rect
   id="SVGID_17_"
   x="24.299999"
   y="24.299999"
   width="157.2"
   height="138.10001" />
		</defs>
		<clipPath
   id="SVGID_18_">
			<use
   xlink:href="#SVGID_17_"
   style="overflow:visible"
   id="use1694"
   x="0"
   y="0"
   width="100%"
   height="100%" />
		</clipPath>
		<path
   class="st9"
   d="m 162.6,60.8 h 3.7 v 11.1 c 0,4.8 -2.8,7.7 -7.4,7.7 -4.6,0 -7.4,-2.9 -7.4,-7.7 V 60.8 h 3.7 v 11.5 c 0,2.5 1.4,3.9 3.7,3.9 2.3,0 3.7,-1.4 3.7,-3.9 z"
   clip-path="url(#SVGID_18_)"
   id="path1697"
   inkscape:connector-curvature="0" />
	</g>
	<g
   id="g1709">
		<defs
   id="defs1702">
			<rect
   id="SVGID_19_"
   x="24.299999"
   y="24.299999"
   width="157.2"
   height="138.10001" />
		</defs>
		<clipPath
   id="SVGID_20_">
			<use
   xlink:href="#SVGID_19_"
   style="overflow:visible"
   id="use1704"
   x="0"
   y="0"
   width="100%"
   height="100%" />
		</clipPath>
		<polygon
   class="st10"
   points="174.6,68.2 180.5,68.2 180.5,71.4 174.6,71.4 174.6,75.9 181.6,75.9 181.6,79.1 170.9,79.1 170.9,60.8 181.6,60.8 181.6,64 174.6,64 "
   clip-path="url(#SVGID_20_)"
   id="polygon1707" />
	</g>
	<g
   id="g1719">
		<defs
   id="defs1712">
			<rect
   id="SVGID_21_"
   x="24.299999"
   y="24.299999"
   width="157.2"
   height="138.10001" />
		</defs>
		<clipPath
   id="SVGID_22_">
			<use
   xlink:href="#SVGID_21_"
   style="overflow:visible"
   id="use1714"
   x="0"
   y="0"
   width="100%"
   height="100%" />
		</clipPath>
		<polygon
   class="st11"
   points="28.1,94.6 34,94.6 34,97.8 28.1,97.8 28.1,105.5 24.4,105.5 24.4,87.2 35.1,87.2 35.1,90.4 28.1,90.4 "
   clip-path="url(#SVGID_22_)"
   id="polygon1717" />
	</g>
	<g
   id="g1729">
		<defs
   id="defs1722">
			<rect
   id="SVGID_23_"
   x="24.299999"
   y="24.299999"
   width="157.2"
   height="138.10001" />
		</defs>
		<clipPath
   id="SVGID_24_">
			<use
   xlink:href="#SVGID_23_"
   style="overflow:visible"
   id="use1724"
   x="0"
   y="0"
   width="100%"
   height="100%" />
		</clipPath>
		<path
   class="st12"
   d="m 38.3,87.2 h 5.6 c 4,0 6.5,2.1 6.5,5.5 0,2.2 -1.1,3.8 -2.9,4.7 l 5.8,8.1 H 48.9 L 44,98.1 h -2 v 7.4 H 38.3 Z M 42,90.4 V 95 h 2.1 c 1.6,0 2.5,-0.8 2.5,-2.3 0,-1.4 -0.9,-2.2 -2.5,-2.2 z"
   clip-path="url(#SVGID_24_)"
   id="path1727"
   inkscape:connector-curvature="0" />
	</g>
	<g
   id="g1739">
		<defs
   id="defs1732">
			<rect
   id="SVGID_25_"
   x="24.299999"
   y="24.299999"
   width="157.2"
   height="138.10001" />
		</defs>
		<clipPath
   id="SVGID_26_">
			<use
   xlink:href="#SVGID_25_"
   style="overflow:visible"
   id="use1734"
   x="0"
   y="0"
   width="100%"
   height="100%" />
		</clipPath>
		<path
   class="st13"
   d="m 61,87.2 h 4.9 l 6.9,18.3 h -3.9 l -1.8,-4.8 h -7.3 l -1.8,4.8 h -3.9 z m 4.9,10.4 -2.5,-6.9 -2.5,6.9 z"
   clip-path="url(#SVGID_26_)"
   id="path1737"
   inkscape:connector-curvature="0" />
	</g>
	<g
   id="g1749">
		<defs
   id="defs1742">
			<rect
   id="SVGID_27_"
   x="24.299999"
   y="24.299999"
   width="157.2"
   height="138.10001" />
		</defs>
		<clipPath
   id="SVGID_28_">
			<use
   xlink:href="#SVGID_27_"
   style="overflow:visible"
   id="use1744"
   x="0"
   y="0"
   width="100%"
   height="100%" />
		</clipPath>
		<polygon
   class="st14"
   points="92.3,87.2 92.3,105.5 87.5,105.5 79.3,92.4 79.3,105.5 75.6,105.5 75.6,87.2 80.4,87.2 88.6,100.3 88.6,87.2 "
   clip-path="url(#SVGID_28_)"
   id="polygon1747" />
	</g>
	<g
   id="g1759">
		<defs
   id="defs1752">
			<rect
   id="SVGID_29_"
   x="24.299999"
   y="24.299999"
   width="157.2"
   height="138.10001" />
		</defs>
		<clipPath
   id="SVGID_30_">
			<use
   xlink:href="#SVGID_29_"
   style="overflow:visible"
   id="use1754"
   x="0"
   y="0"
   width="100%"
   height="100%" />
		</clipPath>
		<path
   class="st15"
   d="m 110.4,100.1 2.9,2.2 c -1.4,1.9 -3.6,3.3 -6.3,3.6 l -2.3,3.8 h -3.3 l 2.3,-3.8 c -4.8,-0.8 -7.9,-4.9 -7.9,-9.5 0,-5.2 4,-9.7 9.7,-9.7 3.3,0 6,1.5 7.7,3.7 l -2.9,2.3 c -1,-1.5 -2.7,-2.5 -4.8,-2.5 -3.5,0 -5.9,2.7 -5.9,6.2 0,3.5 2.5,6.2 5.9,6.2 2.2,0 3.8,-1.1 4.9,-2.5"
   clip-path="url(#SVGID_30_)"
   id="path1757"
   inkscape:connector-curvature="0" />
	</g>
	<g
   id="g1769">
		<defs
   id="defs1762">
			<rect
   id="SVGID_31_"
   x="24.299999"
   y="24.299999"
   width="157.2"
   height="138.10001" />
		</defs>
		<clipPath
   id="SVGID_32_">
			<use
   xlink:href="#SVGID_31_"
   style="overflow:visible"
   id="use1764"
   x="0"
   y="0"
   width="100%"
   height="100%" />
		</clipPath>
		<path
   class="st16"
   d="m 121,87.2 h 4.9 l 6.9,18.3 h -4 l -1.8,-4.8 h -7.3 l -1.8,4.8 H 114 Z m 5,10.4 -2.5,-6.9 -2.5,6.9 z"
   clip-path="url(#SVGID_32_)"
   id="path1767"
   inkscape:connector-curvature="0" />
	</g>
	<g
   id="g1779">
		<defs
   id="defs1772">
			<rect
   id="SVGID_33_"
   x="24.299999"
   y="24.299999"
   width="157.2"
   height="138.10001" />
		</defs>
		<clipPath
   id="SVGID_34_">
			<use
   xlink:href="#SVGID_33_"
   style="overflow:visible"
   id="use1774"
   x="0"
   y="0"
   width="100%"
   height="100%" />
		</clipPath>
		<rect
   x="135.60001"
   y="87.199997"
   class="st17"
   width="3.7"
   height="18.299999"
   clip-path="url(#SVGID_34_)"
   id="rect1777" />
	</g>
	<g
   id="g1789">
		<defs
   id="defs1782">
			<rect
   id="SVGID_35_"
   x="24.299999"
   y="24.299999"
   width="157.2"
   height="138.10001" />
		</defs>
		<clipPath
   id="SVGID_36_">
			<use
   xlink:href="#SVGID_35_"
   style="overflow:visible"
   id="use1784"
   x="0"
   y="0"
   width="100%"
   height="100%" />
		</clipPath>
		<path
   class="st18"
   d="m 145.5,100.5 c 1.1,1.4 2.6,2.2 4.1,2.2 1.5,0 2.4,-0.8 2.4,-2.1 0,-3.3 -8.4,-2.5 -8.4,-8.6 0,-2.9 2.4,-5.3 5.9,-5.3 2.7,0 4.9,1.2 6.4,3.1 l -2.7,2.4 c -1.1,-1.4 -2.3,-2.3 -3.7,-2.3 -1.3,0 -2.1,0.8 -2.1,1.9 0,3.3 8.4,2.5 8.4,8.7 -0.1,3.4 -2.7,5.5 -6.1,5.5 -3.1,0 -5.2,-1.1 -6.8,-3.1 z"
   clip-path="url(#SVGID_36_)"
   id="path1787"
   inkscape:connector-curvature="0" />
	</g>
	<g
   id="g1799">
		<defs
   id="defs1792">
			<rect
   id="SVGID_37_"
   x="24.299999"
   y="24.299999"
   width="157.2"
   height="138.10001" />
		</defs>
		<clipPath
   id="SVGID_38_">
			<use
   xlink:href="#SVGID_37_"
   style="overflow:visible"
   id="use1794"
   x="0"
   y="0"
   width="100%"
   height="100%" />
		</clipPath>
		<polygon
   class="st19"
   points="163.3,94.6 169.2,94.6 169.2,97.8 163.3,97.8 163.3,102.4 170.3,102.4 170.3,105.5 159.6,105.5 159.6,87.2 170.3,87.2 170.3,90.4 163.3,90.4 "
   clip-path="url(#SVGID_38_)"
   id="polygon1797" />
	</g>
	<g
   id="g1809">
		<defs
   id="defs1802">
			<rect
   id="SVGID_39_"
   x="24.299999"
   y="24.299999"
   width="157.2"
   height="138.10001" />
		</defs>
		<clipPath
   id="SVGID_40_">
			<use
   xlink:href="#SVGID_39_"
   style="overflow:visible"
   id="use1804"
   x="0"
   y="0"
   width="100%"
   height="100%" />
		</clipPath>
		<path
   class="st20"
   d="m 84,156.1 c 0.5,0 0.9,0.4 0.7,1.3 l -2.3,0.5 c 0.4,-1 1,-1.8 1.6,-1.8 m 1.3,3.7 h -0.5 c -0.6,0.7 -1.2,1.2 -1.8,1.2 -0.6,0 -1,-0.4 -1,-1.2 0,-0.3 0,-0.7 0.1,-1 l 3.7,-1.2 c 0.7,-1.7 -0.1,-2.5 -1.2,-2.5 -1.8,0 -3.8,2.9 -3.8,5.5 0,1.2 0.6,1.8 1.4,1.8 1.1,0 2.2,-1 3.1,-2.6 m -0.8,-5.4 2.6,-2.4 v -0.3 h -1.4 l -1.6,2.7 z m -8,1.7 h 1.2 l -2,5.4 c -0.2,0.5 0.1,0.9 0.5,0.9 1.1,0 2.9,-1.1 3.5,-2.6 h -0.3 c -0.5,0.5 -1.5,1.2 -2.3,1.4 l 1.8,-5 h 1.8 l 0.2,-0.8 h -1.8 l 0.7,-1.9 h -0.7 l -1.3,1.9 -1.5,0.2 v 0.5 z m -1.7,-0.2 c 0.1,-0.5 -0.2,-0.8 -0.4,-0.8 -1.1,0 -2.3,1 -2.9,2.3 h 0.3 c 0.3,-0.5 0.9,-1 1.5,-1.1 l -2.1,5.3 c -0.2,0.5 0.2,0.8 0.4,0.8 1,0 2.2,-1 2.7,-2.3 H 74 c -0.3,0.5 -0.9,1 -1.5,1.1 z m 0.4,-2.7 c 0.5,0 0.9,-0.4 0.9,-0.9 0,-0.5 -0.4,-0.9 -0.9,-0.9 -0.5,0 -0.9,0.4 -0.9,0.9 0,0.5 0.4,0.9 0.9,0.9 m -11.8,8.2 c -0.3,0.6 0,1 0.6,1 0.4,0 0.5,-0.1 0.7,-0.5 l 1.4,-3.8 c 0.7,-0.8 2,-1.7 2.6,-1.7 0.4,0 0.3,0.3 0.1,0.8 l -2.2,4.2 c -0.2,0.4 0.1,0.9 0.5,0.9 1.1,0 2.4,-1 2.9,-2.3 h -0.3 c -0.3,0.5 -0.9,1 -1.5,1.1 l 1.9,-3.8 c 0.2,-0.5 0.4,-0.9 0.4,-1.3 0,-0.6 -0.3,-1 -1,-1 -0.9,0 -1.9,1 -3,2.3 v -1 c 0,-0.7 -0.2,-1.3 -0.9,-1.3 -0.4,0 -0.8,0.3 -1.2,0.8 v 0.1 c 0.7,0 1,1 0.5,2.1 z m -0.1,-4.7 c 0.3,-0.9 0.1,-1.6 -0.6,-1.6 -0.8,0 -1,0.6 -1.8,2.3 v -1 c 0,-0.7 -0.2,-1.3 -0.9,-1.3 -0.8,0 -1.4,1.2 -2,2.3 h 0.3 c 0.4,-0.5 0.7,-0.8 1,-0.8 0.3,0 0.5,0.5 0,1.6 l -1.5,3.2 c -0.3,0.6 0,1 0.6,1 0.4,0 0.5,-0.1 0.7,-0.5 l 1.4,-3.8 c 0.4,-0.5 0.8,-0.9 1.2,-1.4 z m -8.2,-0.6 c 0.5,0 0.9,0.4 0.7,1.3 l -2.3,0.5 c 0.4,-1 1.1,-1.8 1.6,-1.8 m 1.3,3.7 h -0.5 c -0.6,0.7 -1.2,1.2 -1.8,1.2 -0.6,0 -1,-0.4 -1,-1.2 0,-0.3 0,-0.7 0.1,-1 l 3.7,-1.2 c 0.7,-1.7 -0.1,-2.5 -1.2,-2.5 -1.8,0 -3.8,2.9 -3.8,5.5 0,1.2 0.6,1.8 1.4,1.8 1.2,0 2.2,-1 3.1,-2.6 m -8.8,-3.7 h 1.2 l -2,5.4 c -0.2,0.5 0.1,0.9 0.5,0.9 1.1,0 2.9,-1.1 3.5,-2.6 h -0.3 c -0.5,0.5 -1.5,1.2 -2.3,1.4 l 1.8,-5 h 2 l 0.2,-0.8 h -1.8 l 0.7,-1.9 h -0.7 l -1.3,1.9 -1.5,0.2 c 0,0 0,0.5 0,0.5 z m -6.8,4.2 c 0,-1.7 1.8,-3.9 2.9,-3.9 0.2,0 0.4,0 0.6,0.1 l -1.1,2.9 c -0.6,0.8 -1.6,1.7 -2,1.7 -0.2,-0.1 -0.4,-0.3 -0.4,-0.8 m 5.7,-5.5 h -0.6 l -0.6,0.6 h -0.1 c -3.1,0 -5.7,3.4 -5.7,5.9 0,0.7 0.4,1.1 1.1,1.1 0.8,0 1.6,-1.1 2.4,-2.3 v 0.4 c -0.1,1.2 0.3,1.9 0.9,1.9 0.8,0 1.4,-1.2 2,-2.3 h -0.3 c -0.4,0.5 -0.7,0.8 -1,0.8 -0.3,0 -0.5,-0.5 0,-1.6 z m -6.6,1.9 c 0.3,-0.9 0.1,-1.6 -0.6,-1.6 -0.8,0 -1,0.6 -1.8,2.3 v -1 c 0,-0.7 -0.2,-1.3 -0.9,-1.3 -0.8,0 -1.4,1.2 -2,2.3 h 0.3 c 0.4,-0.5 0.7,-0.8 1,-0.8 0.3,0 0.5,0.5 0,1.6 l -1.5,3.2 c -0.3,0.6 0,1 0.6,1 0.4,0 0.5,-0.1 0.7,-0.5 l 1.4,-3.8 c 0.4,-0.5 0.8,-0.9 1.2,-1.4 z m -10.2,5.4 0.1,-0.4 c -1.8,-0.3 -2,-0.3 -1.3,-2.3 l 0.7,-2 h 2 c 0.9,0 0.9,0.4 0.8,1.3 h 0.5 l 1.2,-3.2 h -0.5 c -0.4,0.8 -0.8,1.3 -1.8,1.3 h -1.9 l 1,-2.8 c 0.3,-0.9 0.5,-1.1 1.7,-1.1 H 33 c 1.2,0 1.4,0.3 1.4,1.6 h 0.5 l 0.4,-2.2 h -7.4 l -0.1,0.4 c 1.4,0.3 1.6,0.4 0.9,2.3 l -1.6,4.4 c -0.7,1.8 -1,2 -2.6,2.3 l -0.1,0.4 z"
   clip-path="url(#SVGID_40_)"
   id="path1807"
   inkscape:connector-curvature="0" />
	</g>
	<g
   id="g1819">
		<defs
   id="defs1812">
			<rect
   id="SVGID_41_"
   x="24.299999"
   y="24.299999"
   width="157.2"
   height="138.10001" />
		</defs>
		<clipPath
   id="SVGID_42_">
			<use
   xlink:href="#SVGID_41_"
   style="overflow:visible"
   id="use1814"
   x="0"
   y="0"
   width="100%"
   height="100%" />
		</clipPath>
		<path
   class="st21"
   d="m 66,139.3 c 0.5,0 0.9,0.4 0.7,1.3 l -2.3,0.5 c 0.4,-1 1.1,-1.8 1.6,-1.8 m 1.3,3.7 h -0.5 c -0.6,0.7 -1.2,1.2 -1.8,1.2 -0.6,0 -1,-0.4 -1,-1.2 0,-0.3 0,-0.7 0.1,-1 l 3.7,-1.2 c 0.7,-1.7 -0.1,-2.5 -1.2,-2.5 -1.8,0 -3.8,2.9 -3.8,5.5 0,1.2 0.6,1.8 1.4,1.8 1.2,0 2.2,-1 3.1,-2.6 m -0.8,-5.4 2.6,-2.4 v -0.3 h -1.4 l -1.6,2.7 z m -8,1.7 h 1.2 l -2,5.4 c -0.2,0.5 0.1,0.9 0.5,0.9 1.1,0 2.9,-1.1 3.5,-2.6 h -0.3 c -0.5,0.5 -1.5,1.2 -2.3,1.4 l 1.8,-5 h 1.8 l 0.2,-0.8 h -1.8 l 0.7,-1.9 h -0.7 l -1.3,1.9 -1.5,0.2 v 0.5 z m -1.7,-0.2 c 0.1,-0.5 -0.2,-0.8 -0.4,-0.8 -1.1,0 -2.3,1 -2.9,2.3 h 0.3 c 0.3,-0.5 0.9,-1 1.5,-1.1 l -2.1,5.3 c -0.2,0.5 0.2,0.8 0.4,0.8 1,0 2.2,-1 2.7,-2.3 H 56 c -0.3,0.5 -0.9,1 -1.5,1.1 z m 0.4,-2.7 c 0.5,0 0.9,-0.4 0.9,-0.9 0,-0.5 -0.4,-0.9 -0.9,-0.9 -0.5,0 -0.9,0.4 -0.9,0.9 0,0.5 0.4,0.9 0.9,0.9 m -7.1,8 3.7,-9.8 -0.1,-0.1 -2.3,0.3 v 0.3 l 0.5,0.3 c 0.4,0.3 0.3,0.6 -0.1,1.6 l -2.9,7.7 c -0.2,0.4 0.1,0.9 0.5,0.9 1.1,0 2.2,-1 2.7,-2.3 h -0.3 c -0.5,0.5 -1.2,1 -1.7,1.1 M 43,143.5 c 0,-1.7 1.8,-3.9 2.9,-3.9 0.2,0 0.4,0 0.6,0.1 l -1.1,2.9 c -0.6,0.8 -1.6,1.7 -2,1.7 C 43.1,144.2 43,144 43,143.5 M 48.6,138 H 48 l -0.6,0.6 h -0.1 c -3.1,0 -5.7,3.4 -5.7,5.9 0,0.7 0.4,1.1 1.1,1.1 0.8,0 1.6,-1.1 2.4,-2.3 v 0.4 c -0.1,1.2 0.3,1.9 0.9,1.9 0.8,0 1.4,-1.2 2,-2.3 h -0.3 c -0.4,0.5 -0.7,0.8 -1,0.8 -0.3,0 -0.5,-0.5 0,-1.6 z m -13.7,8.9 c 0,-0.7 0.7,-1.2 1.7,-1.5 0.3,0.2 0.8,0.3 1.4,0.6 1,0.3 1.4,0.5 1.4,0.8 0,0.7 -1.1,1.2 -2.6,1.2 -1.2,-0.1 -1.9,-0.4 -1.9,-1.1 m 2.8,-4.3 c -0.4,0 -0.6,-0.4 -0.6,-0.8 0,-1.2 0.6,-3 1.7,-3 0.4,0 0.6,0.4 0.6,0.8 0,1.2 -0.7,3 -1.7,3 m 2.9,3.7 c 0,-0.9 -0.8,-1.2 -2,-1.5 -1.1,-0.3 -1.6,-0.4 -1.6,-0.8 0,-0.3 0.2,-0.6 0.7,-0.9 1.8,-0.1 2.9,-1.7 2.9,-3 0,-0.3 -0.1,-0.5 -0.1,-0.7 H 42 l 0.2,-0.8 h -2.4 c -0.3,-0.2 -0.6,-0.3 -1,-0.3 -1.9,0 -3.1,1.6 -3.1,3 0,1 0.6,1.6 1.4,1.8 -0.9,0.4 -1.4,0.8 -1.4,1.4 0,0.3 0.1,0.5 0.4,0.7 -2,0.6 -2.8,1.3 -2.8,2.2 0,0.9 1.2,1.3 2.7,1.3 2.6,0 4.6,-1.3 4.6,-2.4 m -9.4,-5.8 c 0.9,0 0.9,0.4 0.8,1.3 h 0.5 l 1.2,-3.2 h -0.5 c -0.4,0.8 -0.8,1.3 -1.8,1.3 h -1.9 l 1,-2.7 c 0.3,-0.9 0.5,-1.1 1.7,-1.1 H 33 c 1.2,0 1.4,0.3 1.4,1.6 h 0.5 l 0.4,-2.2 h -7.4 l -0.1,0.4 c 1.4,0.3 1.6,0.4 0.9,2.3 l -1.6,4.4 c -0.7,1.8 -1,2 -2.6,2.3 l -0.1,0.4 h 8.2 l 1.5,-2.3 h -0.6 c -0.9,0.9 -2.1,1.7 -3.8,1.7 -2.2,0 -2,-0.1 -1.3,-2.1 l 0.8,-2.1 z m 1.1,-5.6 2.6,-1.8 v -0.3 h -1.6 l -1.4,2.1 z"
   clip-path="url(#SVGID_42_)"
   id="path1817"
   inkscape:connector-curvature="0" />
	</g>
	<g
   id="g1829">
		<defs
   id="defs1822">
			<rect
   id="SVGID_43_"
   x="24.299999"
   y="24.299999"
   width="157.2"
   height="138.10001" />
		</defs>
		<clipPath
   id="SVGID_44_">
			<use
   xlink:href="#SVGID_43_"
   style="overflow:visible"
   id="use1824"
   x="0"
   y="0"
   width="100%"
   height="100%" />
		</clipPath>
		<path
   class="st22"
   d="m 65.1,122.5 c 0.5,0 0.9,0.4 0.7,1.3 l -2.3,0.5 c 0.4,-1 1.1,-1.8 1.6,-1.8 m 1.3,3.7 h -0.5 c -0.6,0.7 -1.2,1.2 -1.8,1.2 -0.6,0 -1,-0.4 -1,-1.2 0,-0.4 0,-0.7 0.1,-1 L 67,124 c 0.7,-1.7 -0.1,-2.5 -1.2,-2.5 -1.8,0 -3.8,2.9 -3.8,5.5 0,1.2 0.6,1.8 1.4,1.8 1.1,0 2.1,-0.9 3,-2.6 m -0.7,-5.4 2.6,-2.4 v -0.3 h -1.4 l -1.6,2.7 c 0,0 0.4,0 0.4,0 z m -7.7,1.8 h 1 l -2,5.4 c -0.2,0.5 0.1,0.9 0.5,0.9 1.1,0 2.9,-1.1 3.5,-2.6 h -0.3 c -0.5,0.5 -1.4,1.2 -2.3,1.4 l 1.8,-5 H 62 l 0.2,-0.8 h -1.8 l 0.7,-1.9 h -0.7 l -1.3,1.9 -1.1,0.1 z m -1,0.6 c 0.3,-0.9 0.1,-1.6 -0.6,-1.6 -0.8,0 -1,0.6 -1.8,2.3 v -1 c 0,-0.7 -0.2,-1.3 -0.9,-1.3 -0.8,0 -1.4,1.2 -2,2.3 H 52 c 0.4,-0.5 0.7,-0.8 1,-0.8 0.3,0 0.5,0.5 0,1.6 l -1.4,3.2 c -0.3,0.6 0,1 0.6,1 0.4,0 0.5,-0.1 0.7,-0.5 l 1.4,-3.8 c 0.4,-0.5 0.8,-0.9 1.2,-1.4 0,0 1.5,0 1.5,0 z m -8.2,-0.7 c 0.5,0 0.9,0.4 0.7,1.3 l -2.3,0.5 c 0.3,-1 1,-1.8 1.6,-1.8 m 1.2,3.7 h -0.5 c -0.6,0.7 -1.2,1.2 -1.8,1.2 -0.6,0 -1,-0.4 -1,-1.2 0,-0.4 0,-0.7 0.1,-1 l 3.7,-1.2 c 0.7,-1.7 -0.1,-2.5 -1.2,-2.5 -1.8,0 -3.8,2.9 -3.8,5.5 0,1.2 0.6,1.8 1.4,1.8 1.2,0 2.3,-0.9 3.1,-2.6 m -9.1,1.5 c -0.4,0 -0.9,-0.3 -0.9,-0.6 0,-0.1 0.2,-0.5 0.4,-1 l 0.6,-1.6 c 0.6,-0.8 1.6,-1.6 2.2,-1.6 0.3,0 0.6,0.2 0.6,0.7 0,1.5 -1.4,4.1 -2.9,4.1 m 4.2,-4.7 c 0,-1.1 -0.4,-1.5 -1.2,-1.5 -0.9,0 -1.8,1 -2.7,2.2 l 2.2,-5.9 -0.1,-0.1 -2.3,0.3 v 0.3 l 0.5,0.3 c 0.4,0.3 0.3,0.7 -0.1,1.6 l -2.4,6.2 c -0.2,0.5 -0.4,1 -0.4,1.1 0,0.6 0.9,1.2 1.7,1.2 1.8,0.1 4.8,-3.2 4.8,-5.7 m -7.3,-0.7 c 0.1,-0.5 -0.2,-0.8 -0.4,-0.8 -1.1,0 -2.3,1 -2.9,2.3 h 0.3 c 0.3,-0.5 0.9,-1 1.5,-1.1 l -2.1,5.3 c -0.2,0.5 0.2,0.8 0.4,0.8 1,0 2.2,-1 2.7,-2.3 H 37 c -0.3,0.5 -0.9,1 -1.5,1.1 z m 0.4,-2.7 c 0.5,0 0.9,-0.4 0.9,-0.9 0,-0.5 -0.4,-0.9 -0.9,-0.9 -0.5,0 -0.9,0.4 -0.9,0.9 0,0.5 0.4,0.9 0.9,0.9 m -5.4,-0.8 h -4.9 l -0.1,0.4 c 1.4,0.3 1.6,0.4 0.9,2.3 l -1.6,4.4 c -0.7,1.8 -1,2 -2.6,2.3 l -0.1,0.4 h 7.4 l 1.6,-2.9 h -0.6 c -0.9,1 -2,2.3 -3.6,2.3 -1.2,0 -1.4,-0.2 -0.7,-2.1 l 1.6,-4.4 c 0.7,-1.8 1,-2 2.6,-2.3 z"
   clip-path="url(#SVGID_44_)"
   id="path1827"
   inkscape:connector-curvature="0" />
	</g>
	<g
   id="g1839">
		<defs
   id="defs1832">
			<rect
   id="SVGID_45_"
   x="24.299999"
   y="24.299999"
   width="157.2"
   height="138.10001" />
		</defs>
		<clipPath
   id="SVGID_46_">
			<use
   xlink:href="#SVGID_45_"
   style="overflow:visible"
   id="use1834"
   x="0"
   y="0"
   width="100%"
   height="100%" />
		</clipPath>
		<path
   class="st23"
   d="m 52,45.8 c 0.3,-0.3 0.5,-0.5 0.8,-0.8 v 0 c 0.5,-0.6 1,-1.1 1.5,-1.6 0.2,-0.2 0.3,-0.3 0.5,-0.4 0,0 0,-0.1 0.1,-0.2 -0.2,0.1 -0.4,0.3 -0.6,0.4 0,0 -0.1,0 0,-0.1 0.2,-0.1 0.3,-0.2 0.5,-0.4 v 0 c 0,0 0,0 0,-0.1 -0.6,-0.1 -1.1,0.3 -1.5,0.7 -0.1,0 -0.2,0 -0.2,0 -0.7,0.2 -1.2,0.8 -1.9,1.1 v -0.1 c -0.3,0.1 -0.5,0.3 -0.8,0.3 -0.4,0.1 -0.8,0 -1.1,0 -0.6,0.1 -1.1,0.2 -1.7,0.3 v 0 C 47.3,45 47,45.1 46.7,45.2 v 0 c 0,0 0,0.1 -0.1,0.1 -0.1,0.1 -0.2,0.2 -0.3,0.3 -0.3,0.1 -0.5,0.4 -0.8,0.6 0,0 0,0 -0.1,0 -0.2,0.2 -0.5,0.5 -0.7,0.7 h -0.1 v 0 0 c 0,-0.1 0.1,-0.1 0.1,-0.2 0,-0.1 0.1,-0.1 0.1,-0.2 0.1,-0.1 0.1,-0.2 0.2,-0.3 0,0 0,0 0,-0.1 0,0 0,0 -0.1,0 0.2,-0.2 0.5,-0.4 0.8,-0.6 v 0 h -0.1 l 0.1,-0.1 v 0 0 c -0.1,0 -0.2,0.1 -0.2,0.2 -0.1,0.1 -0.2,0.3 -0.4,0.3 0,0 0,0 -0.1,0 v 0 0 0 0 0 0 0 c 0,0 0,0 0,-0.1 v 0 c 0,0 0,-0.1 0.1,-0.1 v 0 -0.1 -0.1 c 0.1,-0.1 0.2,-0.2 0.3,-0.3 v 0 c 0.2,-0.1 0.4,-0.2 0.5,-0.3 0,0 0.1,0 0.1,-0.1 -0.3,0.1 -0.5,0.2 -0.7,0.4 h -0.1 -0.1 v 0 c 0,-0.1 0.2,-0.1 0.3,-0.2 h 0.1 c 1.5,-1.1 3.5,-0.9 5.2,-1.5 0.1,-0.1 0.3,-0.2 0.4,-0.3 0.2,-0.1 0.4,-0.3 0.7,-0.5 0.4,-0.3 0.6,-0.6 0.8,-1.1 v -0.1 c -0.6,0.6 -1.3,1.1 -2,1.5 -1,0.5 -2,0.4 -3,0.6 0,-0.1 0.1,-0.1 0.2,-0.1 0,-0.1 0.1,-0.2 0.2,-0.3 v 0 c 0,0 0,-0.1 0.1,-0.1 0.1,0 0.2,0 0.2,0 -0.1,-0.2 -0.4,0.1 -0.6,0 0.1,-0.1 0,-0.2 0.1,-0.3 H 48 c 0,-0.1 0.1,-0.2 0.1,-0.2 0.7,-0.4 1.3,-0.7 2,-1.1 -0.1,0 -0.2,0.1 -0.4,0 0.1,0 0,-0.1 0.1,-0.1 0.5,-0.1 0.9,-0.4 1.4,-0.6 -0.2,0 -0.3,0.1 -0.5,0 0.1,0 0.1,-0.1 0.3,-0.1 v -0.1 c 0,0 0,0 0.1,0 H 51 c 0,-0.1 0.2,0 0.3,-0.1 h -0.1 c 0.1,-0.2 0.4,-0.2 0.6,-0.3 0,-0.1 -0.2,0 -0.2,-0.1 0,0 0,0 0.1,0 h -0.1 c -0.1,0 0,-0.1 0,-0.2 0.3,-0.3 0.3,-0.7 0.4,-1.1 h -0.1 c -0.5,0.5 -1.2,0.7 -1.9,0.9 h -0.2 c -0.2,0.1 -0.6,0.1 -0.8,0 -0.2,-0.1 -0.3,-0.2 -0.5,-0.4 -0.4,-0.2 -0.7,-0.4 -1.1,-0.6 -1.1,-0.4 -2.3,-0.6 -3.5,-0.5 0.5,-0.3 1.1,-0.3 1.6,-0.5 0.8,-0.2 1.5,-0.5 2.3,-0.5 -0.1,0 -0.3,0 -0.5,0 -0.6,0 -1.3,0.1 -2,0.3 -0.5,0.1 -0.9,0.3 -1.3,0.4 -0.3,0.1 -0.4,0.4 -0.7,0.3 v -0.1 c 0.5,-0.6 1,-1.1 1.7,-1.1 0.8,-0.1 1.6,0 2.4,0.1 0.6,0 1.1,0.2 1.7,0.3 0.2,0 0.3,0.4 0.5,0.4 0.3,0.1 0.6,0 0.8,0.2 0,-0.1 0,-0.2 0,-0.3 0.2,-0.2 0.4,0 0.6,0 0.4,-0.2 -0.3,-0.6 -0.5,-1 v -0.1 c 0.4,0.3 0.6,0.7 1.1,0.9 0.2,0.1 0.8,0.2 0.7,0 -0.2,-0.5 -0.7,-0.9 -1.1,-1.4 v -0.2 c -0.1,0 -0.1,0 -0.1,-0.1 v -0.2 c -0.2,-0.1 -0.1,-0.3 -0.2,-0.4 -0.1,-0.2 0,-0.6 -0.1,-0.8 -0.1,-0.3 -0.1,-0.5 -0.2,-0.8 -0.1,-0.8 -0.3,-1.5 -0.4,-2.2 -0.1,-0.9 0.5,-1.6 0.9,-2.3 0.3,-0.6 0.7,-1.1 1.3,-1.5 0.1,-0.6 0.5,-1 0.9,-1.5 0.4,-0.4 1,-0.7 1.4,-0.9 0.6,-0.3 1.2,-0.5 1.2,-0.5 H 24.3 V 49 h 22.3 c 0.9,-0.6 1.7,-0.9 3,-1.5 0.6,-0.7 1.9,-1.3 2.4,-1.7 m -7.1,-3.3 c -0.1,0 -0.3,0 -0.2,0 0,-0.2 0.4,-0.2 0.6,-0.3 0.1,0 0.2,-0.1 0.3,-0.1 0.1,0.1 0.2,0.1 0.3,0.2 -0.3,0.2 -0.7,0 -1,0.2 m -7,-1 c 0,0 -0.1,-0.1 0,0 0.6,-0.9 1,-1.6 1.4,-2.4 0.6,-0.3 1.1,-0.8 1.6,-1.3 0.8,-0.8 1.6,-1.6 2.6,-2 0.4,-0.1 0.8,-0.1 1.2,0 -0.1,0.2 -0.4,0.1 -0.6,0.3 H 44 V 36 c -0.5,0.5 -1.1,0.7 -1.5,1.3 -0.3,0.5 -0.5,1.1 -1.1,1.2 -0.2,0 0,-0.1 0,-0.1 -1.4,0.8 -2.4,1.8 -3.5,3.1 m 3.8,-3.1 c 0,0.1 -0.1,0.1 -0.1,0.2 0,0.1 -0.1,0.1 -0.2,0.2 h -0.1 c 0,-0.2 0.2,-0.4 0.4,-0.4 0,-0.1 0,0 0,0 m 2.1,6.9 c 0,0.1 -0.1,0.1 0,0 0,0.1 0,0.1 0,0.2 -0.1,0.1 -0.2,0.2 -0.3,0.2 0,0 0,0 -0.1,0 -0.1,0.1 -0.1,0.1 -0.2,0.2 -0.1,0 -0.3,0 -0.2,-0.1 0.1,-0.1 0.2,-0.2 0.3,-0.3 0.1,-0.1 0.1,-0.1 0.2,-0.2 l 0.1,-0.1 c 0,0.1 0.3,0 0.2,0.1 M 43,44.9 v 0 c -0.2,0.1 -0.4,0.3 -0.5,0.4 -0.2,0.1 -0.4,0.2 -0.6,0.3 v 0 c 0,0 0,0 -0.1,0 -0.2,0.1 -0.3,0.2 -0.5,0.4 0,0 0,0 -0.1,0.1 v 0 0 c 0,0 0,0 -0.1,0.1 v 0 0 L 41,46.3 c 0,0 0,0 -0.1,0.1 h -0.1 v 0 h -0.1 c 0,0 0,0 -0.1,0 v 0 0 c -0.1,0 -0.1,0.1 -0.2,0.1 -0.1,0.1 -0.2,0.2 -0.3,0.3 v 0 0 0 0 0 0 0 0 0 0 c 0,0 0,0 0,-0.1 v 0 0 c 0,-0.1 0.1,-0.1 0.1,-0.2 v 0 c 0,0 0,0 0,-0.1 l 0.1,-0.1 v 0 c 0.1,-0.1 0.1,-0.1 0.1,-0.2 v 0 0 c 0,0 0,-0.1 0.1,-0.1 0,0 0,-0.1 0.1,-0.1 v 0 0 0 -0.1 0 0 c 0,0 0,0 0,-0.1 v 0 c 0,0 0,0 0,-0.1 v 0 c 0.1,-0.1 0.1,-0.2 0.2,-0.2 v 0 c -0.1,0 -0.1,0.1 -0.2,0.1 0,0 -0.1,0 -0.1,-0.1 l 0.1,-0.1 v 0 c 0.1,-0.1 0.1,-0.2 0.2,-0.2 0.1,0 0.1,-0.1 0.1,-0.1 v 0 L 41,44.9 v 0 c 0.4,-0.4 1.2,-0.4 1.8,-0.7 0.2,-0.1 0.5,0 0.7,0 0.1,0 0.3,0 0.4,0.1 -0.1,0.1 -0.5,0.4 -0.9,0.6 m 0.9,-3.2 c 0,0 0.1,0 0.2,-0.1 h -0.4 c 0,0 0,0 0,-0.1 -0.2,0 -0.5,0.1 -0.7,0.2 -0.3,0.1 -0.6,0.3 -1,0.4 -0.5,0.2 -0.9,0.6 -1.5,0.8 0,0 0,0 0,-0.1 0,-0.1 0.2,-0.2 0.3,-0.3 v -0.1 c 0.4,-0.5 0.9,-0.8 1.3,-1.2 v -0.1 c 0.1,-0.2 0.4,-0.3 0.5,-0.5 0,-0.1 0.2,-0.3 0.5,-0.4 0,0 -0.1,0 -0.1,-0.1 -0.2,0 -0.4,0.1 -0.6,0 0.1,-0.1 0.2,-0.1 0.3,-0.2 0,0 -0.1,0 -0.1,-0.1 0,-0.1 0.1,-0.2 0.2,-0.2 0.2,0 0.4,0 0.6,-0.2 -0.3,0 -0.7,0.1 -1,-0.1 0.2,-0.6 0.6,-1.1 1.2,-1.4 h 0.1 c 0,0.2 -0.1,0.4 -0.4,0.5 0.4,0.1 0.7,0.1 1.1,0.3 0,0.1 -0.1,0 -0.2,0 0.2,0.1 0.5,0 0.7,0.2 -0.1,0.1 -0.3,0 -0.4,0 1.4,0.4 2.9,0.7 4.1,1.7 -1,0.5 -2.1,0.7 -3.2,1 -0.1,0 -0.2,0 -0.4,0 v 0.1 c -0.2,0 -0.3,0 -0.5,0.1 -0.2,0 -0.4,0.1 -0.6,-0.1"
   clip-path="url(#SVGID_46_)"
   id="path1837"
   inkscape:connector-curvature="0"
   style="fill:#273375" />
	</g>
	<g
   id="g1849">
		<defs
   id="defs1842">
			<rect
   id="SVGID_47_"
   x="24.299999"
   y="24.299999"
   width="157.2"
   height="138.10001" />
		</defs>
		<clipPath
   id="SVGID_48_">
			<use
   xlink:href="#SVGID_47_"
   style="overflow:visible"
   id="use1844"
   x="0"
   y="0"
   width="100%"
   height="100%" />
		</clipPath>
		<path
   class="st24"
   d="M 91.2,24.3 H 65 c 0,0 0,0 0.2,0.1 0.2,0.1 0.5,0.3 0.7,0.4 0.3,0.2 0.7,0.4 0.9,0.7 0.1,0.1 0.2,0.4 0.1,0.6 -0.1,0.2 -0.1,0.6 -0.4,0.7 -0.3,0.1 -0.6,0.1 -1,0.1 -0.2,0 -0.4,0 -0.6,-0.1 0.7,0.3 1.3,0.6 1.8,1.2 0,0.1 0.2,0.1 0.4,0.1 v 0.1 C 67,28.3 66.9,28.3 67,28.5 h 0.1 c 0.2,-0.1 0.2,-0.6 0.5,-0.4 0.2,0.1 0.3,0.5 0.2,0.7 -0.2,0.2 -0.4,0.3 -0.6,0.5 0,0.1 0,0.2 0,0.3 0.1,0.2 0.2,0.4 0.2,0.6 0.1,0.3 0.2,0.7 0.3,1 0.2,0.7 0.4,1.4 0.3,2.1 0,0.4 -0.2,0.7 0,1.1 0.1,0.4 0.3,0.6 0.5,1 0.2,0.3 0.4,0.5 0.5,0.7 0.3,0.5 0.8,0.9 0.6,1.5 -0.1,0.3 -0.6,0.3 -1,0.5 -0.3,0.2 0,0.6 0.1,0.8 0.2,0.4 -0.3,0.7 -0.6,0.8 0.1,0.1 0.3,0.1 0.3,0.2 0,0.2 0.3,0.4 0.1,0.6 -0.2,0.3 -0.7,0.4 -0.5,0.8 0.2,0.3 0.1,0.7 0,1 -0.1,0.4 -0.5,0.6 -0.8,0.7 -0.3,0.1 -0.6,0.1 -0.9,0 -0.1,0 -0.2,-0.1 -0.3,-0.1 -0.8,-0.1 -1.6,-0.3 -2.3,-0.3 -0.2,0 -0.5,0.1 -0.6,0.2 -0.2,0.2 -0.4,0.3 -0.6,0.5 v 0 l -0.1,0.1 c 0,0 0,0 -0.1,0.1 v 0 C 62.2,43.7 62,43.8 61.9,44 v 0 c 0,0 0,0 0,0.1 -0.2,0.3 -0.3,0.6 -0.3,0.8 -0.3,1.1 -0.2,2 0,2.2 0.1,0.1 1.5,0.5 2.5,1 0.5,0.2 0.8,0.4 1.1,0.5 H 90.9 V 24.3 Z"
   clip-path="url(#SVGID_48_)"
   id="path1847"
   inkscape:connector-curvature="0"
   style="fill:#e30613" />
	</g>
	<g
   id="g1859">
		<defs
   id="defs1852">
			<rect
   id="SVGID_49_"
   x="24.299999"
   y="24.299999"
   width="157.2"
   height="138.10001" />
		</defs>
		<clipPath
   id="SVGID_50_">
			<use
   xlink:href="#SVGID_49_"
   style="overflow:visible"
   id="use1854"
   x="0"
   y="0"
   width="100%"
   height="100%" />
		</clipPath>
		<path
   class="st25"
   d="m 66.6,33.2 c 0.2,0 0.5,0 0.5,0.1 -0.1,0.4 -0.6,0.5 -0.9,0.8 H 66 c -0.1,0.1 -0.1,0.3 -0.2,0.3 -0.1,0 -0.3,0 -0.4,0 0.2,0.2 0.4,0.3 0.7,0.3 0,0 0.1,0.1 0.1,0.2 0,0 0,0 0.1,0 h 0.1 v 0.2 c -0.1,0.2 -0.4,0.1 -0.6,0.1 0.4,0.1 0.7,0.1 1.1,0 0.3,-0.1 0,-0.6 0.2,-0.8 -0.1,0 0,-0.1 -0.1,-0.1 0.1,-0.1 0.2,-0.2 0.3,-0.3 0.1,0 0.2,0 0.3,-0.1 0,-0.1 -0.2,-0.1 -0.1,-0.2 0.3,-0.2 0.5,-0.5 0.4,-0.7 0,-0.1 -0.4,-0.1 -0.6,-0.2 -0.2,-0.1 -0.5,0 -0.8,0 -0.2,0 -0.5,0.1 -0.7,0.2 -0.3,0.1 -0.6,0.3 -0.9,0.5 0.3,-0.1 0.6,-0.2 1,-0.3 0.2,0 0.4,-0.1 0.7,0"
   clip-path="url(#SVGID_50_)"
   id="path1857"
   inkscape:connector-curvature="0"
   style="fill:#9d9d9c" />
	</g>
</g>
</svg>