<?xml version="1.0" encoding="UTF-8"?>
<svg width="48px" height="48px" viewBox="0 0 48 48" version="1.1" xmlns="http://www.w3.org/2000/svg" xmlns:xlink="http://www.w3.org/1999/xlink">
    <title>02.Icons/Symbol/Run</title>
    <g id="02.Icons/Symbol/Run" stroke="none" stroke-width="1" fill="none" fill-rule="evenodd">
        <g id="Group" transform="translate(12.000000, 12.000000)" fill="#091625">
            <path d="M12,3 C14.2558065,3 16.3867742,3.26571429 18.0009677,3.74857143 C19.8161437,4.2912987 20.8139236,5.05010035 20.9741071,6.0050966 L20.9912903,6.14285714 L21,6.14285714 L21,17.7142857 C21,18.8028571 19.9896774,19.6571429 18.0009677,20.2514286 C16.3867742,20.7342857 14.2558065,21 12,21 C9.74419355,21 7.61322581,20.7342857 5.99903226,20.2514286 C4.09678822,19.6829814 3.08970364,18.8766514 3.00572699,17.8549425 L3,17.7142857 L3,6.14285714 C3.09290323,5.12285714 4.09741935,4.31714286 5.99903226,3.74857143 C7.61322581,3.26571429 9.74419355,3 12,3 Z M19.2609677,14.0657143 C18.8951613,14.2371429 18.4770968,14.3942857 18.0009677,14.5371429 C16.3867742,15.02 14.2558065,15.2857143 12,15.2857143 C9.74419355,15.2857143 7.61322581,15.02 5.99903226,14.5371429 C5.52290323,14.3942857 5.10483871,14.2371429 4.74193548,14.0657143 L4.74193548,14.0657143 L4.74193548,17.7142857 C4.89580645,18.1457143 7.28516129,19.2857143 12,19.2857143 C16.7148387,19.2857143 19.1041935,18.1457143 19.2609677,17.6914286 L19.2609677,17.6914286 Z M19.2580645,8.35142857 C18.8951613,8.52285714 18.4770968,8.68 18.0009677,8.82285714 C16.3867742,9.30571429 14.2558065,9.57142857 12,9.57142857 C9.74419355,9.57142857 7.61322581,9.30571429 5.99903226,8.82285714 C5.61812903,8.70857143 5.2743871,8.58514286 4.96632,8.45257143 L4.74193548,8.35142857 L4.74193548,12 C4.89580645,12.4314286 7.28516129,13.5714286 12,13.5714286 C16.5851104,13.5714286 18.9682727,12.4933478 19.2406072,12.0146127 L19.2580645,11.9771429 L19.2580645,8.35142857 Z M12,4.71428571 C7.36354839,4.71428571 4.97709677,5.81714286 4.74774194,6.28571429 C4.97709677,6.75428571 7.36354839,7.85714286 12,7.85714286 C16.6364516,7.85714286 19.0229032,6.75428571 19.2522581,6.28571429 C19.0229032,5.81714286 16.6364516,4.71428571 12,4.71428571 Z" id="Combined-Shape"></path>
            <path d="M11.7594174,10.6222127 C12.2797026,10.5090933 12.7932392,10.8391322 12.9063587,11.3594174 C13.0194781,11.8797026 12.6894393,12.3932392 12.169154,12.5063587 C11.6488688,12.6194781 11.1353322,12.2894393 11.0222127,11.769154 C10.9090933,11.2488688 11.2391322,10.7353322 11.7594174,10.6222127" id="Fill-3"></path>
            <path d="M11.7594174,16.3222127 C12.2797026,16.2090933 12.7932392,16.5391322 12.9063587,17.0594174 C13.0194781,17.5797026 12.6894393,18.0932392 12.169154,18.2063587 C11.6488688,18.3194781 11.1353322,17.9894393 11.0222127,17.469154 C10.9090933,16.9488688 11.2391322,16.4353322 11.7594174,16.3222127" id="Fill-3"></path>
        </g>
        <path d="M16.6102874,3.07650219 C16.792288,2.97325183 17.0157055,2.9744185 17.1959561,3.08058554 L17.1959561,3.08058554 L23.2702276,6.65934816 C23.4382281,6.75851517 23.5461452,6.9352658 23.5566452,7.13009982 C23.5671453,7.32551717 23.479645,7.51276783 23.3233111,7.62943491 L23.3233111,7.62943491 L17.2490397,12.1666176 C17.0717057,12.2990347 16.8360382,12.3194514 16.6382875,12.2208678 C16.4405368,12.1222841 16.3162864,11.92045 16.3162864,11.6993659 L16.3162864,11.6993659 L16.3162864,8.95068957 C10.7285167,11.9175334 7.16667078,17.7858874 7.16667078,24.1512432 C7.16667078,32.0116875 12.4773562,38.8641284 20.0817163,40.8142186 C20.3938007,40.8947189 20.5816347,41.2120533 20.5017178,41.5247211 C20.4346342,41.7883887 20.1972167,41.962806 19.9370491,41.962806 C19.8892156,41.962806 19.8407988,41.9569726 19.7917986,41.9441392 C11.67177,39.8616319 6,32.5448561 6,24.1512432 C6,17.1488851 10.0366809,10.7100291 16.3162864,7.64168495 L16.3162864,7.64168495 L16.3162864,3.58342065 C16.3162864,3.37400324 16.4282868,3.18091923 16.6102874,3.07650219 Z M17.4829572,4.60425758 L17.4829572,10.5356118 L21.9221395,7.21993347 L17.4829572,4.60425758 Z" id="Combined-Shape" fill="#091625"></path>
        <path d="M28.2354617,6.77753191 C28.3153787,6.46544747 28.6332965,6.27644681 28.9453809,6.35753043 C37.0665762,8.4406211 42.7377629,15.7573969 42.7377629,24.1510098 C42.7377629,31.1533678 38.7004986,37.5922239 32.4214765,40.660568 L32.4214765,40.660568 L32.4214765,44.4166646 C32.4214765,44.626082 32.3088928,44.8185827 32.1274754,44.9229997 C32.0376418,44.9743332 31.9378914,45 31.8381411,45 C31.7354741,45 31.632807,44.9725832 31.5418067,44.9189164 L31.5418067,44.9189164 L25.466952,41.3407371 C25.2995347,41.2415701 25.1910343,41.0648195 25.1811176,40.8699854 C25.1706176,40.6745681 25.2581179,40.4873174 25.4144518,40.370067 L25.4144518,40.370067 L31.4881399,35.8328843 C31.6654738,35.7010505 31.9011413,35.6800505 32.098892,35.7786342 C32.2966427,35.8772178 32.4214765,36.0796352 32.4214765,36.300136 L32.4214765,36.300136 L32.4214765,39.3509801 C38.0086629,36.3841363 41.5710921,30.5163656 41.5710921,24.1510098 C41.5710921,16.2905654 36.2598234,9.43812462 28.6560465,7.48745108 C28.3439621,7.40753413 28.1561281,7.08961634 28.2354617,6.77753191 Z M31.2548057,37.4644734 L26.8150401,40.7801518 L31.2548057,43.3958277 L31.2548057,37.4644734 Z" id="Combined-Shape" fill="#091625"></path>
    </g>
</svg>