<?xml version="1.0" encoding="UTF-8" standalone="no"?>
<svg
   width="48"
   height="48"
   viewBox="0 0 48 48"
   version="1.1"
   id="svg909"
   sodipodi:docname="tiles.svg"
   inkscape:version="1.1.1 (3bf5ae0d25, 2021-09-20)"
   xmlns:inkscape="http://www.inkscape.org/namespaces/inkscape"
   xmlns:sodipodi="http://sodipodi.sourceforge.net/DTD/sodipodi-0.dtd"
   xmlns="http://www.w3.org/2000/svg"
   xmlns:svg="http://www.w3.org/2000/svg"
   xmlns:rdf="http://www.w3.org/1999/02/22-rdf-syntax-ns#"
   xmlns:cc="http://creativecommons.org/ns#"
   xmlns:dc="http://purl.org/dc/elements/1.1/">
  <defs
     id="defs913" />
  <sodipodi:namedview
     id="namedview911"
     pagecolor="#ffffff"
     bordercolor="#666666"
     borderopacity="1.0"
     inkscape:pageshadow="2"
     inkscape:pageopacity="0.0"
     inkscape:pagecheckerboard="0"
     showgrid="false"
     width="48px"
     inkscape:zoom="4.2291667"
     inkscape:cx="-23.763547"
     inkscape:cy="39.133005"
     inkscape:window-width="1600"
     inkscape:window-height="1201"
     inkscape:window-x="2391"
     inkscape:window-y="-9"
     inkscape:window-maximized="1"
     inkscape:current-layer="svg909" />
  <title
     id="title903">02.Icons/Tuile@1x</title>
  <g
     id="02.Icons/Tuile"
     stroke="none"
     stroke-width="1"
     fill="none"
     fill-rule="evenodd"
     transform="translate(11.99987,12)">
    <path
       d="m 10.999483,1.272112 c 0.619048,-0.36281599 1.382185,-0.36281599 2.001234,0 v 0 l 8.004936,4.7382683 c 0.299185,0.1770082 0.548339,0.4294902 0.722446,0.7330779 0.556009,0.9689758 0.232477,2.2124328 -0.722446,2.7766252 v 0 l -8.004936,4.7382686 c -0.619049,0.362816 -1.382186,0.362816 -2.001234,0 v 0 L 2.994546,9.5200834 C 2.6953615,9.3434137 2.4462078,9.0905932 2.2721004,8.7870056 1.7160909,7.8180297 2.0392902,6.5749112 2.994546,6.0103803 v 0 z M 12.0001,3.0286558 3.995163,7.7669241 12.0001,12.505193 20.005036,7.7669241 Z"
       id="Fill-1"
       fill="#091625" />
    <path
       d="M 17.219452,10.424416 20.00517,12.073333 12.000233,16.811601 3.9952965,12.073333 6.5758879,10.54558 5.1006448,9.0702864 2.9946794,10.316789 c -0.9552558,0.564193 -1.2784551,1.807311 -0.7224456,2.776626 0.1741074,0.303587 0.4232611,0.556069 0.7224456,0.733078 l 8.0049366,4.737929 c 0.619049,0.363155 1.381852,0.363155 2.001234,0 l 8.004937,-4.737929 c 0.954922,-0.564531 1.278455,-1.80765 0.722445,-2.776626 -0.174441,-0.303926 -0.423261,-0.556408 -0.722445,-0.733078 L 18.816103,9.0205346 Z"
       id="Fill-4"
       fill="#091625" />
    <path
       d="M 17.253339,14.607765 20.005036,16.236714 12.0001,20.974983 3.995163,16.236714 6.6414617,14.670378 4.9367437,13.330464 2.994546,14.48017 c -0.9552558,0.564193 -1.2784551,1.807311 -0.7224456,2.776626 0.1741074,0.303587 0.4232611,0.556069 0.7224456,0.733078 l 8.004937,4.738268 c 0.619048,0.362477 1.382185,0.362477 2.001234,0 l 8.004936,-4.738268 c 0.954923,-0.564531 1.278455,-1.80765 0.722446,-2.776626 -0.174107,-0.303926 -0.423261,-0.556408 -0.722446,-0.733078 l -1.688374,-0.999436"
       id="Fill-7"
       fill="#091625" />
  </g>
  <metadata
     id="metadata915">
    <rdf:RDF>
      <cc:Work
         rdf:about="">
        <dc:title>02.Icons/Tuile@1x</dc:title>
      </cc:Work>
    </rdf:RDF>
  </metadata>
</svg>
