<?xml version="1.0" encoding="UTF-8" standalone="no"?>
<svg
   width="48"
   height="48"
   viewBox="0 0 48 48"
   version="1.1"
   id="svg494"
   sodipodi:docname="tiles-unstable.svg"
   inkscape:version="1.1.1 (3bf5ae0d25, 2021-09-20)"
   xmlns:inkscape="http://www.inkscape.org/namespaces/inkscape"
   xmlns:sodipodi="http://sodipodi.sourceforge.net/DTD/sodipodi-0.dtd"
   xmlns="http://www.w3.org/2000/svg"
   xmlns:svg="http://www.w3.org/2000/svg"
   xmlns:rdf="http://www.w3.org/1999/02/22-rdf-syntax-ns#"
   xmlns:cc="http://creativecommons.org/ns#"
   xmlns:dc="http://purl.org/dc/elements/1.1/">
  <defs
     id="defs498" />
  <sodipodi:namedview
     id="namedview496"
     pagecolor="#ffffff"
     bordercolor="#666666"
     borderopacity="1.0"
     inkscape:pageshadow="2"
     inkscape:pageopacity="0.0"
     inkscape:pagecheckerboard="0"
     showgrid="false"
     inkscape:zoom="8.4583333"
     inkscape:cx="26.541872"
     inkscape:cy="15.073892"
     inkscape:window-width="1600"
     inkscape:window-height="1201"
     inkscape:window-x="2391"
     inkscape:window-y="-9"
     inkscape:window-maximized="1"
     inkscape:current-layer="svg494" />
  <title
     id="title488">02.Icons/Tuile-KO</title>
  <g
     id="02.Icons/Tuile-KO"
     stroke="none"
     stroke-width="1"
     fill="none"
     fill-rule="evenodd"
     transform="translate(11.985221,11.985221)">
    <path
       d="m 3.086557,15.725007 c 0.2020821,-0.404164 0.6935419,-0.567984 1.0977061,-0.365902 v 0 l 7.8159159,3.907958 7.815916,-3.907958 c 0.404165,-0.202082 0.895624,-0.03826 1.097707,0.365902 0.202082,0.404164 0.03826,0.895624 -0.365903,1.097706 v 0 l -8.181818,4.090909 c -0.23034,0.115171 -0.501463,0.115171 -0.731804,0 v 0 L 3.452459,16.822713 C 3.0482948,16.620631 2.8844749,16.129171 3.086557,15.725007 Z m 0,-4.090909 c 0.2020821,-0.404164 0.6935419,-0.567984 1.0977061,-0.365902 v 0 l 7.8159159,3.907958 7.815916,-3.907958 c 0.404165,-0.202082 0.895624,-0.03826 1.097707,0.365902 0.202082,0.404164 0.03826,0.895624 -0.365903,1.097706 v 0 l -8.181818,4.090909 c -0.23034,0.115171 -0.501463,0.115171 -0.731804,0 v 0 L 3.452459,12.731804 C 3.0482948,12.529722 2.8844749,12.038262 3.086557,11.634098 Z m 9.279524,-8.5477202 8.181818,4.090909 c 0.60304,0.3015199 0.60304,1.1620883 0,1.4636082 l -8.181818,4.090909 c -0.23034,0.11517 -0.501463,0.11517 -0.731804,0 L 3.452459,8.640895 c -0.6030397,-0.3015199 -0.6030397,-1.1620883 0,-1.4636082 l 8.181818,-4.090909 c 0.230341,-0.1151704 0.501464,-0.1151704 0.731804,0 z m -0.365902,1.6465591 -6.3523078,3.176154 6.3523078,3.1761541 6.352308,-3.1761541 z"
       id="Combined-Shape"
       fill="#091625" />
    <rect
       id="Rectangle"
       fill="#ffffff"
       x="13"
       y="13"
       width="11"
       height="11"
       rx="5.5" />
    <path
       d="m 19.583244,16.249369 -1.083306,1.084139 -1.083307,-1.084139 c -0.333325,-0.332492 -0.833312,-0.332492 -1.166637,0 -0.333325,0.333325 -0.333325,0.833312 0,1.166637 l 1.082473,1.083306 -1.082473,1.083307 c -0.333325,0.333325 -0.333325,0.833312 0,1.166637 0.166662,0.167496 0.416656,0.249994 0.583319,0.249994 0.166662,0 0.416656,-0.0825 0.583318,-0.249994 l 1.083307,-1.082473 1.083306,1.082473 c 0.166662,0.167496 0.416656,0.249994 0.583319,0.249994 0.166662,0 0.416656,-0.0825 0.583318,-0.249994 0.332492,-0.333325 0.332492,-0.833312 0,-1.166637 l -1.083306,-1.083307 1.083306,-1.083306 c 0.332492,-0.333325 0.332492,-0.833312 0,-1.166637 -0.333325,-0.332492 -0.833312,-0.332492 -1.166637,0 z"
       id="Fill-1"
       fill="#e9375f" />
  </g>
  <metadata
     id="metadata715">
    <rdf:RDF>
      <cc:Work
         rdf:about="">
        <dc:title>02.Icons/Tuile-KO</dc:title>
      </cc:Work>
    </rdf:RDF>
  </metadata>
</svg>
