<?xml version="1.0" encoding="UTF-8"?>
<svg width="101px" height="98px" viewBox="0 0 101 98" version="1.1" xmlns="http://www.w3.org/2000/svg" xmlns:xlink="http://www.w3.org/1999/xlink">
    <title>02.Icons/bac-a-sable</title>
    <g id="Deposer" stroke="none" stroke-width="1" fill="none" fill-rule="evenodd">
        <g id="Espace-de-travail" transform="translate(-855.000000, -399.000000)">
            <g id="02.Icons/bac-a-sable" transform="translate(855.000000, 399.000000)">
                <polygon id="Clip-2" points="0 0 101 0 101 100 0 100"></polygon>
                <path d="M96.1561059,56.1152425 L4.84413632,56.1152425 L4.84413632,10.7913928 C4.84413632,7.47963424 7.55443059,4.79617457 10.8993067,4.79617457 L90.1009355,4.79617457 C93.4446006,4.79617457 96.1561059,7.47963424 96.1561059,10.7913928 L96.1561059,56.1152425 Z M96.1561059,68.1056789 C96.1561059,71.4162384 93.4446006,74.1008971 90.1009355,74.1008971 L10.8993067,74.1008971 C7.55443059,74.1008971 4.84413632,71.4162384 4.84413632,68.1056789 L4.84413632,60.9114171 L96.1561059,60.9114171 L96.1561059,68.1056789 Z M56.3130847,92.805978 L44.6871575,92.805978 L44.6871575,78.8970717 L56.4341881,78.8970717 L56.3130847,92.805978 Z M101.000242,10.7913928 C101.000242,4.83094684 96.1209859,0 90.1009355,0 L10.8993067,0 C4.87925631,0 0,4.83094684 0,10.7913928 L0,68.1056789 C0,74.0649258 4.87925631,78.8970717 10.8993067,78.8970717 L39.8430212,78.8970717 L39.8430212,92.805978 L29.5492315,92.805978 C28.2110389,92.805978 27.1271634,93.8803211 27.1271634,95.2040652 C27.1271634,96.5290085 28.2110389,97.6021525 29.5492315,97.6021525 L71.4510107,97.6021525 C72.7879923,97.6021525 73.8730788,96.5290085 73.8730788,95.2040652 C73.8730788,93.8803211 72.7879923,92.805978 71.4510107,92.805978 L61.157221,92.805978 L61.157221,78.8970717 L90.1009355,78.8970717 C96.1209859,78.8970717 101.000242,74.0649258 101.000242,68.1056789 L101.000242,10.7913928 Z" id="Fill-1" fill="#091625"></path>
                <path d="M45.5117991,16.5251811 C44.8033441,15.8249396 43.6492287,15.8249396 42.9431958,16.5251811 L36.9606874,22.4484567 L33.4014583,18.9232684 C32.6930033,18.2230269 31.5400989,18.2230269 30.832855,18.9232684 C30.4901324,19.2625978 30.3,19.7134382 30.3,20.1954537 C30.3,20.6750712 30.4901324,21.1271106 30.832855,21.467639 L35.6757803,26.2638136 C36.019714,26.6031429 36.4762738,26.7901937 36.9606874,26.7901937 C37.4463121,26.7901937 37.9028719,26.6031429 38.2455946,26.2638136 L45.5117991,19.0695517 C45.8545217,18.7290233 46.043443,18.2781829 46.043443,17.7973664 C46.043443,17.3165499 45.8545217,16.8645105 45.5117991,16.5251811" id="Fill-4" fill="#091625"></path>
                <path d="M39.5300173,39.3802719 L43.0892465,35.8562826 C43.4331802,35.5157542 43.6208905,35.0649138 43.6208905,34.5840973 C43.6208905,34.1032808 43.4331802,33.6512414 43.0904575,33.311912 C42.4050122,32.6332533 41.2060885,32.6332533 40.5218542,33.311912 L36.9614141,36.8371003 L33.4021849,33.311912 C32.7167396,32.6332533 31.5178159,32.6332533 30.8335816,33.311912 C30.490859,33.6512414 30.3019377,34.1032808 30.3019377,34.5840973 C30.3019377,35.0649138 30.490859,35.5157542 30.8335816,35.8562826 L34.3928108,39.3802719 L30.8335816,42.9042612 C30.490859,43.2435905 30.3019377,43.69563 30.3019377,44.1764465 C30.3019377,44.657263 30.490859,45.1081034 30.8335816,45.4486318 C31.5420366,46.1500723 32.69373,46.1488733 33.4009739,45.4486318 L36.9614141,41.9234435 L40.5218542,45.4486318 C40.8754762,45.7987525 41.3405133,45.9738129 41.8055504,45.9738129 C42.2705875,45.9738129 42.7356245,45.7987525 43.0892465,45.4486318 C43.4331802,45.1081034 43.6208905,44.657263 43.6208905,44.1764465 C43.6208905,43.69563 43.4331802,43.2435905 43.0892465,42.9042612 L39.5300173,39.3802719 Z" id="Fill-6" fill="#091625"></path>
                <path d="M69.3824918,37.5817064 L49.5154777,37.5817064 C48.2475251,37.5817064 47.2544771,38.3718762 47.2544771,39.3802719 C47.2544771,40.3886676 48.2475251,41.1788374 49.5154777,41.1788374 L69.3824918,41.1788374 C70.6504445,41.1788374 71.6434924,40.3886676 71.6434924,39.3802719 C71.6434924,38.3718762 70.6504445,37.5817064 69.3824918,37.5817064" id="Fill-8" fill="#091625"></path>
                <path d="M69.3824918,20.7950954 L49.5154777,20.7950954 C48.2475251,20.7950954 47.2544771,21.5852652 47.2544771,22.5936609 C47.2544771,23.6020566 48.2475251,24.3922264 49.5154777,24.3922264 L69.3824918,24.3922264 C70.6504445,24.3922264 71.6434924,23.6020566 71.6434924,22.5936609 C71.6434924,21.5852652 70.6504445,20.7950954 69.3824918,20.7950954" id="Fill-10" fill="#091625"></path>
            </g>
        </g>
    </g>
</svg>