<?xml version="1.0" encoding="UTF-8"?>
<svg width="100px" height="98px" viewBox="0 0 100 98" version="1.1" xmlns="http://www.w3.org/2000/svg" xmlns:xlink="http://www.w3.org/1999/xlink">
    <title>02.Icons/Workspace</title>
    <g id="Deposer" stroke="none" stroke-width="1" fill="none" fill-rule="evenodd">
        <g id="Espace-de-travail" transform="translate(-485.000000, -399.000000)">
            <g id="Group" transform="translate(485.000000, 399.000000)">
                <polygon id="Clip-2" points="0 0 100 0 100 100 0 100"></polygon>
                <path d="M95.2038369,56.3323654 L4.79616307,56.3323654 L4.79616307,10.8331472 C4.79616307,7.50857469 7.47961631,4.81473209 10.7913669,4.81473209 L89.2086331,4.81473209 C92.5191847,4.81473209 95.2038369,7.50857469 95.2038369,10.8331472 L95.2038369,56.3323654 Z M95.2038369,68.3691956 C95.2038369,71.6925645 92.5191847,74.3876108 89.2086331,74.3876108 L10.7913669,74.3876108 C7.47961631,74.3876108 4.79616307,71.6925645 4.79616307,68.3691956 L4.79616307,61.1470975 L95.2038369,61.1470975 L95.2038369,68.3691956 Z M55.7553957,93.1650659 L44.2446043,93.1650659 L44.2446043,79.2023428 L55.8752998,79.2023428 L55.7553957,93.1650659 Z M100,10.8331472 C100,4.8496389 95.1690647,0 89.2086331,0 L10.7913669,0 C4.83093525,0 0,4.8496389 0,10.8331472 L0,68.3691956 C0,74.3515003 4.83093525,79.2023428 10.7913669,79.2023428 L39.4484412,79.2023428 L39.4484412,93.1650659 L29.2565947,93.1650659 C27.9316547,93.1650659 26.8585132,94.2435659 26.8585132,95.5724319 C26.8585132,96.9025017 27.9316547,97.979798 29.2565947,97.979798 L70.7434053,97.979798 C72.0671463,97.979798 73.1414868,96.9025017 73.1414868,95.5724319 C73.1414868,94.2435659 72.0671463,93.1650659 70.7434053,93.1650659 L60.5515588,93.1650659 L60.5515588,79.2023428 L89.2086331,79.2023428 C95.1690647,79.2023428 100,74.3515003 100,68.3691956 L100,10.8331472 Z" id="Fill-1" fill="#091625"></path>
            </g>
        </g>
    </g>
</svg>